<?xml version="1.0" encoding="utf-8"?>
<!-- Generator: Adobe Illustrator 27.0.0, SVG Export Plug-In . SVG Version: 6.00 Build 0)  -->
<svg version="1.1" id="Layer_1" xmlns="http://www.w3.org/2000/svg" xmlns:xlink="http://www.w3.org/1999/xlink" x="0px" y="0px"
	 viewBox="0 0 2560 826.7" style="enable-background:new 0 0 2560 826.7;" xml:space="preserve">
<style type="text/css">
	.st0{fill-rule:evenodd;clip-rule:evenodd;fill:url(#SVGID_1_);}
	.st1{fill-rule:evenodd;clip-rule:evenodd;fill:url(#SVGID_00000026138307117799251260000006764461199947622545_);}
	.st2{fill:url(#SVGID_00000063593914408623320640000016626277547576758425_);}
	.st3{fill:url(#SVGID_00000065052467126281043960000016746527877688509577_);}
</style>
<g>
	
		<linearGradient id="SVGID_1_" gradientUnits="userSpaceOnUse" x1="1663.9855" y1="-7.7893" x2="1663.9855" y2="617.0907" gradientTransform="matrix(1 0 0 1 0 397)">
		<stop  offset="0" style="stop-color:#1A7A45"/>
		<stop  offset="0.7849" style="stop-color:#1A7A45"/>
		<stop  offset="1" style="stop-color:#1A7A45"/>
	</linearGradient>
	<path class="st0" d="M1295,661.1C1295,661.1,1295,661,1295,661.1c-0.2,0-0.3-0.1-0.4-0.1c-0.1,0-0.1-0.1-0.1-0.1
		c-0.1,0.2-0.2,0.5-0.2,0.7c0.3-0.1,0.6-0.2,0.8-0.4C1295,661.2,1295,661.1,1295,661.1z M1295,660c0.1-0.2,0.2-0.3,0.4-0.1
		c-0.1-0.2-0.2-0.4-0.3-0.5c-0.1,0-0.2,0-0.2,0.1c0,0.2,0,0.4,0,0.6c0,0.1,0,0.2,0,0.3c0,0,0,0,0,0c0,0.1,0,0.2,0.1,0.3
		c0,0,0,0.1,0,0.1c0,0,0,0.1,0,0.1c0.1,0,0.1,0,0.2,0c0,0-0.1,0-0.1-0.1h0c0,0,0-0.1-0.1-0.1c0,0,0-0.1,0-0.2c0,0,0-0.1,0-0.1
		c0,0,0,0,0-0.1c0-0.1,0-0.1,0-0.2C1294.9,660.2,1294.9,660.1,1295,660z M1295.4,659.9C1295.4,659.9,1295.4,659.9,1295.4,659.9
		C1295.4,660,1295.4,660,1295.4,659.9C1295.4,660,1295.4,660,1295.4,659.9C1295.4,659.9,1295.4,659.9,1295.4,659.9z M1295.5,660.8
		C1295.5,660.8,1295.5,660.8,1295.5,660.8C1295.4,660.8,1295.4,660.8,1295.5,660.8C1295.4,660.8,1295.4,660.8,1295.5,660.8
		c-0.1,0-0.1,0-0.1,0c-0.1,0-0.1,0.1-0.2,0.1c0,0,0,0,0,0c0,0-0.1,0-0.1,0c0,0,0,0,0,0C1295.2,661,1295.3,661,1295.5,660.8
		C1295.4,660.9,1295.4,660.9,1295.5,660.8C1295.4,660.9,1295.4,660.9,1295.5,660.8C1295.5,660.9,1295.5,660.9,1295.5,660.8
		L1295.5,660.8L1295.5,660.8L1295.5,660.8L1295.5,660.8z M1295.4,660L1295.4,660C1295.4,660,1295.4,660,1295.4,660
		C1295.4,660,1295.4,660,1295.4,660z M1295.7,660.7C1295.7,660.7,1295.7,660.7,1295.7,660.7C1295.7,660.7,1295.7,660.7,1295.7,660.7
		C1295.7,660.7,1295.6,660.8,1295.7,660.7C1295.6,660.8,1295.6,660.8,1295.7,660.7C1295.6,660.8,1295.6,660.8,1295.7,660.7
		L1295.7,660.7C1295.6,660.8,1295.6,660.8,1295.7,660.7L1295.7,660.7C1295.6,660.8,1295.6,660.8,1295.7,660.7
		c-0.1,0.1-0.1,0.1-0.1,0.1v0h0c0,0,0,0,0,0c0,0,0,0,0,0S1295.6,660.8,1295.7,660.7L1295.7,660.7L1295.7,660.7L1295.7,660.7
		L1295.7,660.7C1295.7,660.8,1295.7,660.8,1295.7,660.7L1295.7,660.7C1295.7,660.8,1295.7,660.8,1295.7,660.7
		C1295.7,660.7,1295.7,660.7,1295.7,660.7C1295.7,660.7,1295.7,660.7,1295.7,660.7L1295.7,660.7L1295.7,660.7z M1295.7,660.7
		L1295.7,660.7C1295.7,660.7,1295.7,660.7,1295.7,660.7L1295.7,660.7C1295.7,660.7,1295.7,660.7,1295.7,660.7
		C1295.7,660.7,1295.7,660.7,1295.7,660.7C1295.7,660.7,1295.7,660.7,1295.7,660.7z M1295.7,660.5L1295.7,660.5L1295.7,660.5
		C1295.7,660.5,1295.7,660.5,1295.7,660.5L1295.7,660.5z M1295.7,660.6C1295.7,660.6,1295.7,660.6,1295.7,660.6L1295.7,660.6
		C1295.7,660.6,1295.7,660.6,1295.7,660.6C1295.7,660.6,1295.7,660.6,1295.7,660.6z M1295.8,660.8L1295.8,660.8
		C1295.8,660.8,1295.8,660.8,1295.8,660.8C1295.8,660.8,1295.8,660.8,1295.8,660.8z M1296.4,660.8c0.1,0.1,0.1,0.1,0.1,0.2h0
		c0,0,0-0.1,0-0.1c0-0.1-0.1-0.1-0.1-0.2C1296.5,660.7,1296.4,660.8,1296.4,660.8z M1296.5,660.4
		C1296.6,660.4,1296.6,660.4,1296.5,660.4c0.1-0.2,0-0.2,0-0.3C1296.5,660.2,1296.5,660.3,1296.5,660.4z M1296.4,659.8
		C1296.4,659.8,1296.4,659.9,1296.4,659.8C1296.6,659.8,1296.5,659.8,1296.4,659.8z M1295.8,659.6c0,0-0.1,0.1-0.1,0.2
		c0,0-0.1-0.1-0.1-0.1v0c0,0,0,0,0,0c-0.1-0.1-0.2-0.1-0.2-0.1c-0.1-0.1-0.1-0.1-0.2-0.1c0,0.1,0.1,0.2,0.1,0.3v0c0,0,0,0.1,0.1,0.1
		c0,0,0,0.1,0,0.1c0,0.1,0.1,0.1,0.1,0.2c0-0.1-0.1-0.1-0.1-0.2c0,0.1,0.1,0.2,0.1,0.3c0,0,0,0,0,0c0,0,0,0,0,0c0,0,0,0,0,0
		c0,0,0,0,0,0v0c0,0,0,0,0,0v0h0v0h0c0,0,0,0,0,0s0,0,0,0c0,0,0,0,0,0h0c0,0,0,0,0,0l0,0c0,0,0,0,0,0h0v0h0c0,0,0,0,0,0v0h0
		c0,0,0,0,0,0v0h0c0,0,0,0,0,0h0v0h0v0h0v0h0c0,0,0,0,0,0c0,0,0,0,0,0c0,0,0,0,0,0c0,0,0,0,0,0v0h0c0,0,0,0,0,0c0,0,0,0,0,0
		c0,0,0,0,0,0c0-0.1,0.1-0.1,0.1-0.2c0-0.1,0.1-0.1,0.1-0.2c0,0,0,0,0,0c0,0,0,0,0,0c0,0,0,0,0,0c0,0,0,0,0,0c0,0-0.1-0.1-0.1-0.1
		C1295.9,659.7,1295.9,659.6,1295.8,659.6z M1295.6,660.4C1295.6,660.4,1295.6,660.4,1295.6,660.4
		C1295.6,660.4,1295.6,660.4,1295.6,660.4C1295.6,660.4,1295.6,660.4,1295.6,660.4z M1295.7,660.6
		C1295.7,660.6,1295.7,660.6,1295.7,660.6C1295.7,660.6,1295.7,660.6,1295.7,660.6C1295.7,660.6,1295.7,660.6,1295.7,660.6
		L1295.7,660.6z M1295.7,660.6C1295.7,660.6,1295.7,660.6,1295.7,660.6L1295.7,660.6L1295.7,660.6L1295.7,660.6z M1295.7,660.5
		L1295.7,660.5L1295.7,660.5L1295.7,660.5C1295.7,660.5,1295.7,660.5,1295.7,660.5z M1295.4,660C1295.4,660,1295.4,660,1295.4,660
		C1295.5,660,1295.4,660,1295.4,660L1295.4,660z M1295.4,659.9C1295.4,659.9,1295.4,659.9,1295.4,659.9
		C1295.4,660,1295.4,660,1295.4,659.9C1295.4,660,1295.4,660,1295.4,659.9C1295.4,659.9,1295.4,659.9,1295.4,659.9z M1294.8,659.5
		c0,0.2,0,0.4,0,0.6c0,0.1,0,0.2,0,0.4c0,0,0,0,0,0c0,0.1,0,0.2,0.1,0.3c0,0,0,0.1,0,0.1c0,0,0,0.1,0,0.1c0.1,0,0.1,0,0.2,0
		c0,0-0.1,0-0.1-0.1h0c0,0,0-0.1-0.1-0.1c0,0,0-0.1,0-0.2c0,0,0-0.1,0-0.1c0,0,0,0,0-0.1c0-0.1,0-0.1,0-0.2c0-0.1,0-0.2,0.1-0.3
		c0.1-0.2,0.2-0.3,0.4-0.1c-0.1-0.2-0.2-0.4-0.3-0.5C1294.9,659.5,1294.9,659.5,1294.8,659.5z M1296.1,660.9
		C1296.1,660.9,1296.1,660.9,1296.1,660.9c-0.1,0-0.1-0.1-0.2-0.1v0h0c0,0,0,0,0,0c0,0,0,0,0,0c0.1,0.1,0.3,0.2,0.3,0.2
		C1296.2,661,1296.2,660.9,1296.1,660.9z M1296.4,659.8C1296.4,659.8,1296.4,659.9,1296.4,659.8
		C1296.6,659.8,1296.5,659.8,1296.4,659.8z M1296.5,660.2c0,0.1,0,0.2,0,0.3c0,0,0.1-0.1,0.1-0.1
		C1296.6,660.3,1296.6,660.2,1296.5,660.2z M1296.5,660.7c0,0,0,0.1-0.1,0.1c0.1,0.1,0.1,0.1,0.1,0.2h0c0,0,0-0.1,0-0.1
		C1296.6,660.8,1296.5,660.8,1296.5,660.7z M1296.7,661C1296.6,661,1296.6,661,1296.7,661c-0.1,0-0.1,0-0.1,0.1c0,0,0,0,0,0
		c0,0,0,0,0,0.1c0,0,0.1,0.1,0.1,0.1C1296.7,661.2,1296.7,661.2,1296.7,661z M1296.7,659.4c-0.1,0-0.2,0-0.4,0.1
		c0.3,0.1,0.5,0.5,0.2,0.8c0,0,0.1,0.1,0.1,0.1C1296.8,660.1,1296.8,659.7,1296.7,659.4z M2068.5,681.9c1.2-4.5,2.2-11.1-0.9-18.3
		c-1.7-3.7-4.8-7.1-8.7-10.2c-3.5-2.8-7.1-5.3-10.9-7.6c0.3-0.3,0.4-1,0.4-1.7c0-1,0-1.8-0.5-2.8c-0.5-1.1-1.4-2-2.3-2.9
		c-1-0.9-2.1-1.3-2.7-1.9l-0.3-1.7c0.1,0,0.2-0.1,0.3-0.2c0.1-0.1,0.2-0.2,0.2-0.4c0.2-0.3,0.2-0.5,0.3-0.8c0-0.6-0.1-0.7-0.3-1.2
		c-0.2-0.2-0.4-0.3-0.6-0.5v-1.4c0.1-0.1,0.2-0.2,0.3-0.3s0.1-0.2,0.1-0.4c0-0.2,0.1-0.5,0.1-0.7c0-0.2-0.1-0.5-0.1-0.7
		c-0.1-0.2-0.4-0.5-0.6-0.5v-1.6l-0.6-12.2c0-0.2,0-0.2-0.2-0.2c-0.1,0-0.2,0-0.2,0.2l-0.5,12.2l-0.2,1.7c-0.2,0-0.4,0.3-0.5,0.5
		c-0.1,0.2-0.1,0.5-0.1,0.7c0,0.1,0.1,0.5,0.1,0.7c0.1,0.2,0.2,0.5,0.4,0.6l-0.1,1.4c-0.1,0.1-0.1,0.2-0.2,0.3
		c-0.1,0.1-0.2,0.2-0.3,0.2c-0.1,0.5-0.2,0.6-0.2,1.2c0,0.2,0.1,0.6,0.1,0.9c0.3,0.3,0.4,0.4,0.5,0.6v1.7c-0.9,0.6-1.8,1-2.7,1.9
		c-1,0.8-1.8,1.8-2.5,2.9c-0.3,0.9-0.5,1.9-0.5,2.8c0.1,0.7,0.1,1.4,0.4,1.7c-3.3,2-7.3,4.7-11.1,7.6c-3.6,3.1-7,6.6-8.6,10.2
		c-3.1,7.2-2.1,13.8-1,18.3h-4.3l-0.1-44.4h1.9c0.3,0,0.6,0,0.8-0.1c0.3-0.1,0.5-0.3,0.7-0.5s0.4-0.4,0.5-0.7s0.2-0.5,0.2-0.8
		c0-1.4-0.9-2.5-2.2-2.5h-1.9l-0.1-31.1l0-4.2h0.5c0.5,0,1.1-0.2,1.4-0.5c0.4-0.4,0.6-0.9,0.6-1.4c0-0.3,0-0.5-0.1-0.8
		s-0.3-0.5-0.4-0.7c-0.2-0.2-0.4-0.4-0.7-0.5c-0.3-0.1-0.5-0.1-0.8-0.1h-0.5l-0.4-28.9h0.9c1,0,1.8-0.6,1.8-1.8
		c0-0.7-0.7-1.4-1.4-1.5v-12.3l0.1-0.2c-0.1-0.1-0.1-0.3-0.1-0.5V546h0.8c0.5,0,1-0.3,1-0.9c0-0.3-0.1-0.5-0.3-0.7s-0.4-0.3-0.7-0.3
		h-1c0.5-1.6,1.2-4.5-0.1-7.4c-0.5-1.5-1.8-2.8-3.3-3.8c-1.3-1.1-2.7-2.1-4.2-3c0.1-0.2,0.1-0.3,0.1-0.7c0-0.3,0-0.6-0.1-0.9
		c-0.2-0.4-0.6-0.8-0.9-1.1c-0.4-0.2-0.7-0.4-1-0.7v-0.6c0-0.2,0-0.2,0.2-0.3v-0.8c-0.2,0-0.2-0.2-0.2-0.2l-0.1-0.5
		c0.1,0,0.1,0,0.1-0.2v-0.6c0,0,0,0,0,0c0,0,0,0,0,0c0,0,0,0,0,0s0,0,0,0v-0.8l-0.3-4.3c0-0.4-0.1-0.4-0.1-0.4s-0.1,0-0.1,0.4
		l-0.3,4.3v0.8h-0.1c-0.1,0.1-0.1,0.2-0.1,0.4c0,0,0,0.3,0.1,0.3c0,0.2,0,0.2,0.1,0.2l-0.1,0.5c0,0-0.1,0.2-0.3,0.2v0.8
		c0.1,0.1,0.3,0.1,0.3,0.3v0.6c-0.3,0.3-0.7,0.5-1.1,0.7c-0.4,0.3-0.8,0.7-0.8,1.1c-0.2,0.3-0.3,0.6-0.2,0.9v0.7
		c-1.4,0.9-2.8,1.9-4.2,3c-1.3,1-2.6,2.3-3.1,3.8c-1.4,2.9-0.7,5.9-0.1,7.4h-1c-0.1,0-0.3,0-0.4,0.1s-0.2,0.1-0.3,0.2
		c-0.1,0.1-0.2,0.2-0.2,0.3c0,0.1-0.1,0.2,0,0.4c0,0.7,0.3,0.9,0.9,0.9h0.8v15.2c-0.4,0.1-0.7,0.2-1,0.5c-0.3,0.3-0.4,0.6-0.4,1
		c0,1.2,0.9,1.8,1.9,1.8h0.8l-0.1,28.9h-0.6c-1.2,0-2.2,0.8-2.2,2.1c0,1,1.1,2,2.2,2h0.6l-0.1,19.6l-0.1,15.7h-1.9
		c-1.3,0-2.3,1.2-2.3,2.5c0,1.2,1.1,2.1,2.3,2.1h1.9l-0.1,44.4h-6.7v-7.1h0.9c0.9,0,1.7-0.6,1.7-1.5c0-1-0.8-1.9-1.7-1.9h-0.9
		c1.7-4,6.1-16.9,0.4-30.1c-1.6-3.8-4.5-7.5-8-10.8c-1.3-1.2-2.6-2.3-4-3.4c-4.8-3.9-9.8-7.3-15.2-10.3c0.2-0.9,0.4-1.7,0.4-2.6
		c0.3-1.4,0-2.6-0.5-4c-0.7-1.6-1.9-2.9-3.4-3.9c-1.3-1-2.9-1.7-3.9-2.4l-0.2-2.6c0.2,0,0.4-0.1,0.5-0.2s0.2-0.3,0.3-0.5
		c0.1-0.4,0.4-0.7,0.4-1.3c0-0.5-0.3-0.7-0.5-1.3c0-0.5-0.4-0.6-0.9-0.7v-2.3c0.3-0.1,0.4-0.3,0.5-0.6c0.2-0.4,0.3-0.8,0.4-1.2
		c0-0.2-0.3-0.5-0.4-1c-0.3-0.3-0.3-0.5-0.8-0.6v-2.3l-0.7-16.7c0-0.1-0.3-0.2-0.4-0.2c-0.3,0-0.4,0.1-0.4,0.2l-0.8,16.7v2.3
		c-0.4,0.1-0.7,0.3-0.7,0.6c-0.2,0.3-0.4,0.6-0.4,1c0,0.6,0,1,0.4,1.2c0,0.1,0,0.2,0.1,0.3c0.1,0.1,0.1,0.2,0.2,0.3v2.3
		c-0.3,0.1-0.7,0.3-0.8,0.7c-0.3,0.6-0.4,0.8-0.4,1.3c0,0.4,0.1,0.9,0.3,1.3c0.2,0.3,0.4,0.6,0.6,0.7v2.5c-1.2,0.7-2.4,1.4-3.9,2.4
		c-1.4,1-2.7,2.3-3.4,3.9c-0.5,1.3-0.8,2.6-0.8,4c0.3,0.8,0.3,1.8,0.7,2.6c-4.7,2.5-10.1,6.2-15.2,10.3c-5.1,4-9.6,9-11.8,14.2
		c-5.7,13.2-1.3,26,0.3,30.1h-0.8c-0.5,0-1,0.2-1.3,0.5c-0.4,0.3-0.6,0.8-0.6,1.3c0,0.9,0.9,1.5,1.9,1.5h0.2v7.1h-4.3v-37.5h0.2
		l-0.2-18.8v-1.7l-0.1-10h1.7c0.5,0,1-0.2,1.3-0.6c0.4-0.3,0.6-0.8,0.6-1.3c0-0.5-0.2-1-0.6-1.3c-0.4-0.3-0.8-0.5-1.3-0.5h-1.7
		l-0.1-28.1h0.7c0.4,0,0.8-0.2,1-0.4c0.3-0.3,0.5-0.6,0.5-1c0-1.1-0.7-1.7-1.6-1.7h-0.7v-23h0.7c0.2,0,0.4,0,0.5-0.1
		s0.3-0.2,0.5-0.3s0.2-0.3,0.3-0.4c0.1-0.2,0.1-0.4,0.1-0.5c0-0.8-0.5-1.5-1-1.5v-6.8h0.5c0.2,0,0.3-0.1,0.4-0.2s0.2-0.3,0.2-0.5
		c0-0.5-0.3-0.9-0.7-0.9h-0.8c0.3-1.3,0.8-3.6-0.1-5.8c-0.5-1.2-1.4-2.3-2.6-3c-1-1-2.2-1.8-3.4-2.5c0.2,0,0.2-0.3,0.2-0.6
		c0-0.2,0-0.5-0.2-0.7c-0.2-0.4-0.4-0.7-0.6-1c-0.4-0.2-0.5-0.2-0.9-0.4v-0.7c0.1,0,0.1,0,0.1-0.3v-0.4l-0.1-0.3l-0.1-0.3l0.1-0.3
		h0.1v-0.2c0-0.2,0-0.2-0.1-0.3l-0.1-0.2v-0.3l-0.1-3.7h-0.3l-0.1,3.7v0.3l-0.2,0.2c0,0-0.1,0.1-0.1,0.1s0,0.1,0,0.1
		c0,0,0.1,0,0.1,0.2v0.6c0,0,0,0.3-0.1,0.3v0.4c0,0.3,0.1,0.3,0.1,0.3v0.7c-0.2,0.1-0.6,0.2-0.8,0.4c-0.3,0.3-0.6,0.6-0.8,1
		c-0.1,0.1-0.1,0.6-0.1,0.7c0,0.3,0,0.6,0.1,0.6c-1.2,0.7-2.3,1.5-3.2,2.5c-1.3,0.6-2.2,1.7-2.7,3c-1,2.2-0.5,4.5,0,5.8h-0.8
		c-0.2,0-0.4,0.1-0.6,0.3c-0.1,0.2-0.2,0.4-0.2,0.6c0,0.2,0.1,0.3,0.3,0.5s0.3,0.2,0.5,0.2h0.5v6.8c-0.5,0-0.9,0.7-0.9,1.5
		c0,0.2,0,0.4,0.1,0.5c0.1,0.2,0.2,0.3,0.3,0.5s0.3,0.2,0.4,0.3c0.2,0.1,0.3,0.1,0.5,0.1l0.8,0l-0.1,23h-0.6c-0.2,0-0.4,0-0.6,0.1
		c-0.2,0.1-0.4,0.2-0.5,0.4c-0.2,0.2-0.3,0.4-0.3,0.6c-0.1,0.2-0.1,0.4-0.1,0.6c0,0.6,0.8,1.4,1.6,1.4h0.6l-0.3,28.2h-1.5
		c-0.2,0-0.5,0-0.7,0.1c-0.2,0.1-0.4,0.2-0.6,0.4c-0.2,0.2-0.3,0.4-0.4,0.6c-0.1,0.2-0.1,0.5-0.1,0.7c0,0.2,0,0.5,0.1,0.7
		s0.2,0.4,0.4,0.6c0.2,0.2,0.4,0.3,0.6,0.4c0.2,0.1,0.5,0.2,0.7,0.2h1.5v10h-6.9v-11h0.8c0.2,0,0.5-0.1,0.6-0.3
		c0.2-0.2,0.3-0.4,0.3-0.6c0-0.4-0.5-0.8-0.9-0.8h-0.9c0.4-1.3,1.1-4-0.1-6.7c-0.5-1.2-1.6-2.2-2.9-3.3c-1.1-1-2.3-1.9-3.6-2.6v-0.5
		c0.1-0.2,0.1-0.4,0-0.5c0-0.2-0.1-0.3-0.2-0.5c0-0.2-0.1-0.4-0.2-0.5c-0.1-0.2-0.3-0.3-0.4-0.4c-0.3-0.2-0.7-0.4-0.9-0.7v-0.7
		c0.3-0.1,0.3-0.1,0.3-0.3c0,0,0-0.3-0.1-0.4c-0.1-0.1-0.2-0.1-0.3-0.1v-0.4l0.1-0.2v-0.5c0-0.2-0.1-0.2-0.1-0.2v-0.6l-0.2-3.9h-0.3
		v4.5c-0.3,0-0.3,0-0.3,0.2v1.1c0,0,0,0,0,0c0,0,0,0,0,0c0,0,0,0-0.1,0s0,0-0.1,0l-0.1,0.4c0,0.2,0,0.2,0.1,0.3
		c0.1,0,0.1,0.1,0.1,0.1v0.6c-0.2,0.3-0.5,0.5-0.8,0.7c-0.5,0.3-0.9,0.6-0.9,0.9c-0.1,0.3-0.1,0.6-0.1,1c0,0.3,0,0.5,0.1,0.5
		c-1.4,0.7-2.6,1.5-3.8,2.5c-1.2,1.1-2.3,2.1-2.7,3.3c-0.5,1-0.8,2.2-0.8,3.3c0,1.1,0.1,2.3,0.5,3.4h-0.8c-0.2,0-0.4,0.1-0.5,0.3
		c-0.1,0.1-0.2,0.3-0.2,0.5c0,0.2,0.1,0.4,0.2,0.6c0.1,0.2,0.3,0.3,0.6,0.3h0.6v11h-6.2v-6.5l0.1-0.4c-0.1-0.1-0.2-0.3-0.1-0.5v-3.1
		h1.2c0.3,0,0.7-0.2,0.9-0.4c0.2-0.2,0.4-0.6,0.4-0.9c0-0.7-0.7-1.2-1.3-1.2h-1.4c0.5-2.4,1.5-6.3-0.4-10.5
		c-0.8-1.8-2.5-3.6-4.3-5.4c-2.1-1.3-4.2-2.7-5.8-3.7c0.1-0.2,0.1-0.6,0.3-0.9c0-0.5-0.1-1.1-0.3-1.6c-0.4-0.5-0.8-1-1.3-1.4
		c-0.5-0.5-1.2-0.7-1.3-1l-0.2-0.6c0.2-0.4,0.2-0.6,0.4-0.6v-0.6c0-0.2-0.1-0.4-0.2-0.6h-0.2l-0.1-0.8c0.1-0.1,0.4-0.1,0.4-0.5v-0.6
		c-0.1-0.1-0.3-0.2-0.4-0.3V581l-0.3-6.3h-0.2l-0.4,6.3v0.8c0,0.1-0.1,0.1-0.1,0.3c-0.3,0-0.3,0.3-0.3,0.3v0.3
		c0.1,0.2,0.2,0.3,0.4,0.5v0.8h-0.5v1.1c0.1,0.1,0.1,0.2,0.4,0.7v0.6c-0.6,0.3-1.2,0.6-1.7,1c-0.4,0.4-0.7,0.9-1,1.4
		c-0.3,0.5-0.3,1.1-0.3,1.6c0,0.2,0.1,0.5,0.1,0.7c-1.8,1.2-3.9,2.5-5.6,3.9c-2.1,1.8-3.8,3.7-4.6,5.4c-1.8,4.2-1,8.2-0.3,10.5h-1.2
		c-0.9,0-1.4,0.5-1.4,1.2c0,0.2,0,0.4,0.1,0.5c0.1,0.2,0.2,0.3,0.3,0.5c0.1,0.1,0.3,0.2,0.5,0.3c0.2,0.1,0.4,0.1,0.5,0.1h0.9v10.5
		h-6.6v-4.2h0.8c0.6,0,1.3-0.6,1.3-1.6c0-0.3-0.2-0.6-0.4-0.9c-0.2-0.2-0.6-0.4-0.9-0.4h-0.9c1.6-3.2,4.9-13.5,0.4-24.2
		c-1.8-4-5.3-7.8-9.5-11.5c-4.2-3.1-8.5-5.8-12.1-8.1c0.3-0.7,0.4-1.4,0.4-2.1c0-0.9,0-2-0.5-3.1c-0.5-1.1-1.7-2.2-2.8-2.9
		c-0.9-0.9-1.9-1.6-3-2.2v-1.9c0.1-0.1,0.4-0.5,0.6-0.7c0-0.2,0.1-0.6,0.1-0.8c0-0.5-0.1-0.8-0.1-1.1c-0.2-0.3-0.6-0.5-0.9-0.7V556
		c0.1-0.2,0.2-0.4,0.4-0.5c0.1-0.6,0.2-0.7,0.2-1.1c-0.1-0.2-0.2-0.5-0.4-0.7c0-0.4-0.3-0.4-0.4-0.5v-1.9l-0.7-13
		c1.2,0,2.5-0.1,3.6-0.8c1-0.7,1.9-1.6,2.6-2.7c-0.6,0.5-1.2,1-1.8,1.4c-2.7,1.6-6.6,0.7-8.4-2.3c-1.6-2.8-0.5-6.6,2.3-8.3
		c0.7-0.3,1.6-0.8,2.3-0.8c-1.3-0.2-2.7,0.4-3.8,0.9c-3.3,1.9-4.4,6.1-2.4,9.3c0.5,0.9,1.2,1.7,2,2.3c0.9,0.6,1.8,1,2.9,1.1l-0.6,13
		l-0.1,1.9c-0.1,0-0.3,0-0.4,0.5c-0.2,0.2-0.2,0.4-0.3,0.6c0,0.4,0.1,0.8,0.3,1.2c0.1,0.1,0.1,0.2,0.4,0.5l-0.1,1.5
		c-0.1,0.1-0.5,0.4-0.6,0.7c-0.1,0.3-0.4,0.6-0.4,1.1c0.1,0.3,0.2,0.6,0.4,0.8c0.1,0.2,0.3,0.6,0.5,0.7v1.9c-1.1,0.6-2.1,1.3-3,2.2
		c-1.2,0.7-2.2,1.7-2.9,2.9c-0.4,1-0.7,2-0.7,3.1c0,1,0.4,1.4,0.5,2.1c-4.2,2.4-8.2,5.1-12.1,8.1c-4.2,3.7-7.8,7.5-9.6,11.5
		c-4.6,10.6-1,20.9,0.4,24.2h-0.7c-0.9,0-1.6,0.6-1.6,1.2c0,1.1,0.7,1.6,1.6,1.6h0.3v4.2h-6.2v-10.5h1c0.3,0,0.7-0.2,0.9-0.4
		s0.4-0.6,0.4-0.9c0-0.7-0.7-1.2-1.3-1.2h-1.5c0.9-2.4,1.7-6.3-0.1-10.5c-0.9-1.8-2.6-3.6-4.6-5.4c-1.8-1.3-3.7-2.6-5.7-3.7
		c0.1-0.3,0.2-0.6,0.1-0.9c0.1-0.5,0-1.1-0.1-1.6c-0.4-0.3-0.8-1-1.3-1.4c-0.5-0.4-1-0.7-1.6-1v-0.6c0.1-0.4,0.1-0.6,0.3-0.6
		c0.1-0.1,0.1-0.2,0.1-0.6c0-0.2-0.1-0.4-0.1-0.6h-0.3l-0.1-0.8c0.1-0.1,0.1-0.1,0.2-0.5v-0.6c-0.1-0.1-0.2-0.2-0.2-0.3V581
		l-0.2-6.3h-0.4l-0.2,6.3v0.8c-0.1,0.1-0.2,0.2-0.3,0.3v0.6c0,0.4,0.1,0.4,0.3,0.5v0.8h-0.3c-0.1,0.2-0.2,0.4-0.3,0.6
		c0,0.4,0,0.5,0.1,0.6c0.1,0.2,0.2,0.4,0.2,0.6l-0.1,0.6c-0.3,0.3-0.9,0.5-1.3,1c-0.5,0.4-1,0.9-1.4,1.4c-0.2,0.5-0.2,1.1-0.1,1.6
		c0,0.3,0,0.6,0.1,0.9c-2,1.1-3.9,2.4-5.7,3.7c-2,1.8-3.7,3.7-4.6,5.4c-1.7,4.2-0.8,8.2-0.2,10.5h-1.1c-0.8,0-1.4,0.5-1.4,1.2
		c0,0.4,0.2,0.7,0.4,1c0.3,0.3,0.6,0.4,1,0.4h0.9V624h-6.1v-11h0.5c0.1,0,0.2,0,0.4-0.1c0.1,0,0.2-0.1,0.3-0.2
		c0.1-0.1,0.2-0.2,0.2-0.3c0.1-0.1,0.1-0.2,0.1-0.4c0-0.2-0.1-0.4-0.3-0.6c-0.2-0.2-0.4-0.2-0.6-0.2h-0.8c0.4-1.4,0.9-4-0.1-6.7
		c-0.7-1.2-1.8-2.2-2.9-3.3c-1.1-1-2.4-1.9-3.8-2.5v-1.5c-0.2-0.4-0.5-0.7-0.9-0.9c-0.2-0.3-0.6-0.4-0.8-0.7v-0.6l0.1-0.1v-0.7
		c-0.1-0.1-0.2-0.1-0.3-0.1l-0.1-0.4l0.2-0.2l0.1-0.4c0,0,0-0.2-0.1-0.2c0-0.2-0.1-0.2-0.2-0.2v-0.6l-0.1-3.9h-0.1l-0.1,3.9v0.6
		c-0.2,0-0.2,0-0.2,0.2l-0.2,0.2c0,0,0.2,0,0.2,0.4l0.2,0.2l-0.2,0.4c0,0,0,0.1-0.2,0.1v0.6l0.2,0.2v0.6c-0.3,0.3-0.6,0.5-0.9,0.7
		c-0.3,0.3-0.6,0.6-0.8,0.9c-0.3,0.2-0.3,0.7-0.3,1c0,0.1,0,0.2,0.1,0.3c0.1,0.1,0.1,0.2,0.2,0.2c-1.4,0.6-2.6,1.5-3.6,2.5
		c-1.3,1.1-2.5,2.1-3,3.3c-0.9,2.1-0.9,4.5-0.1,6.7h-0.9c-0.2,0.1-0.4,0.2-0.5,0.3c-0.1,0.2-0.2,0.3-0.3,0.5c0,0.2,0.1,0.4,0.2,0.6
		c0.1,0.2,0.3,0.3,0.5,0.3h0.8v11h-4.8v-21h1.9c0.6,0,1.2-0.3,1.7-0.7c0.4-0.5,0.7-1.1,0.7-1.7c0-0.6-0.3-1.2-0.7-1.6
		s-1-0.7-1.6-0.7h-1.9l-0.1-35.4h0.6c1,0,2.1-0.9,2.1-2c0-0.5-0.2-1.1-0.6-1.4s-0.9-0.6-1.4-0.6h-0.8l-0.1-28.9h0.9
		c0.9,0,1.8-0.7,1.8-1.7c0-0.4-0.2-0.8-0.4-1.1c-0.3-0.3-0.6-0.5-1-0.6v-15.3h0.6c0.5,0,1.2-0.4,1.2-0.9c0-0.5-0.6-1-1.2-1h-1
		c0.7-1.6,1.3-4.6-0.1-7.5c-0.5-1.3-1.8-2.6-3.1-3.8c-1.3-1.2-2.7-2.2-4.3-3c0.1-0.1,0.1-0.2,0.1-0.5c0-0.3,0-0.7-0.1-1
		c0-0.3-0.2-0.5-0.3-0.8c-0.2-0.2-0.4-0.4-0.7-0.4c-0.3-0.3-0.6-0.5-0.9-0.7v-0.7c0,0,0.3,0,0.3-0.1v-1c-0.1,0-0.3-0.1-0.4-0.1v-0.5
		c0.1,0,0.1-0.1,0.1-0.1c0.2-0.1,0.2-0.3,0.3-0.5l-0.3-0.2c0,0,0,0,0-0.1c0,0,0,0,0,0c0,0,0,0,0,0c0,0,0,0-0.1,0v-0.6l-0.3-4.6
		c0-0.2,0-0.2-0.1-0.2l-0.2,4.8v0.6c-0.2,0-0.2,0-0.2,0.1c-0.1,0-0.3,0.2-0.3,0.2c0,0.3,0.1,0.3,0.1,0.5c0.1,0,0.1,0.1,0.1,0.1v0.5
		c-0.1,0-0.2,0-0.3,0.1v1c0,0.1,0.1,0.1,0.3,0.1v0.7c-0.4,0.1-0.7,0.5-1,0.7c-0.5,0.1-0.8,0.5-1.1,1.2c0,0.2-0.1,0.5-0.1,1
		c0,0.2,0.1,0.4,0.1,0.5c-1.5,0.8-2.8,1.8-4,3c-1.6,1.2-2.7,2.5-3.4,3.8c-1.3,2.9-0.7,5.9-0.1,7.5h-0.9c-0.1,0-0.2,0-0.4,0.1
		c-0.1,0-0.2,0.1-0.3,0.2c-0.1,0.1-0.2,0.2-0.2,0.3c0,0.1-0.1,0.2-0.1,0.4c0,0.1,0,0.2,0.1,0.4c0,0.1,0.1,0.2,0.2,0.3
		c0.1,0.1,0.2,0.1,0.3,0.2c0.1,0,0.2,0.1,0.3,0.1h0.8v15.3c-0.4,0-0.8,0.2-1,0.5c-0.3,0.3-0.4,0.7-0.4,1.1c0,1,0.8,1.7,1.8,1.7h0.9
		l-0.1,28.9h-0.8c-1.2,0-2.1,0.8-2.1,2c0,0.3,0.1,0.5,0.2,0.8c0.1,0.2,0.3,0.5,0.4,0.6c0.2,0.2,0.4,0.3,0.7,0.4s0.5,0.1,0.8,0.1h0.6
		l-0.1,35.4h-1.9c-1.3,0-2.5,1-2.5,2.3c0,0.6,0.3,1.3,0.8,1.7c0.5,0.5,1.1,0.7,1.7,0.7h1.9l-0.1,52.9c-1.3-1.2-2.6-2.3-4.1-3.3
		c-4.6-4.2-9.9-7.3-14-9.5c0.3-0.8,0.5-1.7,0.5-2.6c0-1.2-0.2-2.4-0.6-3.6c-0.7-1.4-2-2.6-3.1-3.5c-1.1-1-2.3-1.8-3.6-2.5v-2.2
		c0.1-0.2,0.5-0.5,0.5-0.8c0.1-0.2,0.2-0.3,0.3-0.5s0.1-0.4,0.1-0.6c0-0.5-0.2-1-0.4-1.4c-0.1-0.2-0.5-0.5-0.8-0.7v-2
		c0.2-0.2,0.3-0.4,0.4-0.6c0.1-0.1,0.2-0.3,0.2-0.4c0-0.2,0.1-0.3,0-0.5c0.1-0.4,0-0.8-0.3-1.2c-0.1-0.1-0.4-0.5-0.7-0.5v-2
		l-0.6-15.6c-0.1-0.2-0.1-0.5-0.4-0.5c-0.1,0-0.1,0-0.2,0s-0.1,0.1-0.1,0.1c0,0-0.1,0.1-0.1,0.2c0,0,0,0.1,0,0.2l-0.8,15.6l-0.1,2
		c-0.1,0-0.3,0.4-0.5,0.5c-0.1,0.5-0.3,0.6-0.3,1.2c0,0.3,0.1,0.6,0.1,0.9c0.4,0.3,0.4,0.5,0.5,0.6v2c-0.3,0.2-0.5,0.5-0.8,0.7
		c-0.2,0.4-0.3,0.9-0.3,1.4c0,0.5,0,1,0.3,1.2c0.1,0.2,0.1,0.3,0.2,0.5s0.2,0.3,0.4,0.4v2.2c-1,0.6-2.4,1.3-3.6,2.5
		c-1.3,0.8-2.6,2.1-3.1,3.5c-0.7,1.1-0.8,2.5-0.8,3.6c0.1,0.9,0.3,2,0.4,2.7c-4.2,2.2-9.2,5.4-13.9,9.5c-1.2,0.8-2.3,1.6-3.4,2.8h-1
		l-0.3-28.1h0.5c0.2,0,0.4,0,0.6-0.1s0.4-0.2,0.5-0.3c0.2-0.1,0.3-0.3,0.4-0.5c0.1-0.2,0.1-0.4,0.2-0.6c0-0.5-0.2-0.9-0.5-1.2
		s-0.7-0.5-1.2-0.5h-0.5l-0.1-22.8h0.7c0.4,0,0.7-0.1,1-0.4c0.3-0.3,0.4-0.6,0.4-1c0-1-0.3-1.3-1.1-1.3v-7h0.8
		c0.3,0,0.7-0.2,0.7-0.9c0-0.2-0.1-0.3-0.2-0.4s-0.3-0.2-0.4-0.2h-1c0.4-1.3,1.1-3.6-0.1-6.1c-0.7-1.1-1.6-2.1-2.6-3
		c-1-0.9-2.1-1.7-3.3-2.4c0.1,0,0.1-0.1,0.1-0.5c0-0.1,0-0.3-0.1-0.4c-0.1-0.1-0.1-0.2-0.2-0.3c-0.1-0.5-0.2-0.8-0.7-0.9
		c-0.4-0.3-0.5-0.5-0.9-0.6v-0.5c0,0,0.2,0,0.2-0.3c0,0,0.1,0,0.1-0.2c0,0-0.1,0-0.1-0.2l-0.2-0.4v-0.6l0.2,0c0-0.1-0.2-0.1-0.2-0.1
		v-0.7l-0.3-3.5c0-0.2,0-0.2-0.1-0.2v0.2l-0.2,3.5v0.4c-0.1,0-0.1,0-0.1,0.4c-0.1,0-0.1,0-0.1,0.1c0,0,0,0,0.1,0v0.6l-0.1,0.4
		l-0.1,0.2c0,0.2,0,0.2,0.1,0.2c0,0.3,0,0.3,0.1,0.3v0.5c-0.3,0.2-0.6,0.4-0.9,0.6c-0.2,0.1-0.3,0.2-0.4,0.4
		c-0.1,0.2-0.2,0.3-0.2,0.5c-0.1,0.2-0.2,0.5-0.3,0.7c0,0.4,0.1,0.5,0.3,0.5c-0.9,0.7-2.3,1.5-3.4,2.4c-1,0.9-1.9,1.9-2.6,3
		c-1,2.5-0.6,4.8,0,6.1h-0.9c-0.2,0-0.3,0.1-0.4,0.2s-0.2,0.3-0.2,0.4c0,0.6,0.4,0.9,0.7,0.9h0.6v7c-0.6,0-1,0.3-1,1.3
		c0,0.2,0,0.4,0.1,0.6c0.1,0.2,0.2,0.3,0.3,0.5c0.1,0.1,0.3,0.2,0.5,0.3c0.2,0.1,0.4,0.1,0.6,0.1h0.6l-0.1,22.8h-11.8l-0.2-70.1h2.6
		c1.9,0,3.5-1.7,3.5-3.4c0-2-1.6-3.3-3.5-3.3h-2.6l-0.4-50.4h1c1.6,0,2.9-1.1,2.9-2.8c0-0.4-0.1-0.8-0.2-1.1
		c-0.2-0.4-0.4-0.7-0.6-0.9c-0.3-0.3-0.6-0.5-0.9-0.6c-0.3-0.1-0.7-0.2-1.1-0.2h-1l-0.1-41h1.2c0.7,0,1.4-0.3,1.9-0.8
		s0.8-1.2,0.8-1.9c0-1.1-0.9-2.1-2.2-2.4v-8.1l0.3-0.3c0-0.2-0.3-0.4-0.3-0.7v-3.2h1.2c0.4,0,0.7-0.2,1-0.4c0.3-0.3,0.4-0.6,0.4-1
		c0-0.7-0.7-1.2-1.4-1.2h-1.4c0.8-2.1,1.6-6.5-0.1-10.7c-0.9-2-2.8-4-4.7-5.6c-1.8-1.5-3.8-2.8-6-3.9c0.1-0.4,0.2-0.8,0.1-1.2
		c0.1-0.3,0-0.9-0.1-1.4c-0.4-0.6-0.8-1.1-1.3-1.6c-0.5-0.3-1-0.6-1.6-1v-0.9c0.1-0.1,0.2-0.1,0.3-0.1c0.1-0.2,0.2-0.4,0.1-0.7
		c0-0.2,0-0.4-0.1-0.5c-0.1-0.1-0.3-0.1-0.3-0.3l-0.3-0.8c0.3-0.2,0.3-0.2,0.3-0.3c0.1,0,0.1-0.1,0.1-0.1c0-0.5,0-0.5-0.1-0.7
		c0-0.1,0-0.1-0.3-0.4v-0.6l-0.2-6.6l-0.2-0.1l-0.1,0.1l-0.2,6.6l-0.3,0.6c0,0.3,0,0.3-0.1,0.4c0,0.1-0.2,0.1-0.2,0.6
		c0,0,0,0.2,0.2,0.2c0.1,0,0.1,0.1,0.1,0.1c0,0,0,0.1,0,0.2v0.8c-0.1,0.1-0.3,0.1-0.3,0.3c0,0.2-0.1,0.3-0.2,0.5
		c0,0.3,0.2,0.6,0.2,0.7c0.1,0.1,0.2,0.1,0.3,0.1v0.9c-0.5,0.4-1,0.7-1.6,1c-0.5,0.5-1,1-1.3,1.6c-0.2,0.5-0.3,0.9-0.3,1.4
		c0,0.4,0,0.8,0.1,1.2c-1.7,0.9-3.8,2.3-5.9,3.9c-1.9,1.5-3.6,3.4-4.7,5.6c-1.8,4.2-0.9,8.5-0.2,10.7h-1.3c-0.2,0-0.3,0-0.5,0.1
		c-0.2,0.1-0.3,0.1-0.4,0.3c-0.1,0.1-0.2,0.3-0.3,0.4c-0.1,0.2-0.1,0.3-0.1,0.5c0,0.3,0.1,0.7,0.4,0.9c0.2,0.3,0.6,0.4,0.9,0.4h1
		v12.4c-0.5,0.1-1,0.4-1.3,0.9s-0.5,1-0.5,1.5c0,1.5,1,2.7,2.3,2.7h1.4l-0.3,41h-1.2c-0.4,0-0.8,0.1-1.1,0.2
		c-0.3,0.1-0.7,0.4-0.9,0.6c-0.3,0.3-0.5,0.6-0.6,0.9c-0.1,0.4-0.2,0.7-0.2,1.1c0,0.4,0.1,0.8,0.2,1.1c0.1,0.4,0.3,0.7,0.6,0.9
		c0.3,0.3,0.6,0.5,0.9,0.6c0.3,0.1,0.7,0.2,1.1,0.2h1.2l-0.2,50.5h-3c-0.6,0-1.2,0.2-1.7,0.4c-5.6-8-13-15.3-21.3-22.1
		c-11.4-9.7-24.3-17.6-34.7-23.5c0.7-1.6,0.9-3.8,1.1-6.1c0.3-2.6-0.3-5.9-1.6-9.1c-1.4-3.3-4.6-6.4-7.7-9c-3.1-2.2-6.5-4.1-9-5.6
		l-0.3-5.5c0.7-0.5,1.3-1.1,1.7-1.9c0.5-0.9,0.7-1.8,0.7-3c0-1-0.1-2.2-0.7-3.1c-0.7-0.8-1.3-1.6-2.1-2.1l-0.3-4.7
		c0.5-0.5,0.9-0.9,1.3-1.3c0.4-1,0.6-1.6,0.6-2.6c0-0.9-0.3-1.7-0.8-2.4c-0.3-0.7-0.9-1.2-1.6-1.5l-0.1-5.3l-1.6-37.4
		c3.4,0,7-1,10.3-2.6c3.4-2.1,6.1-5,7.7-8.4c-1.4,1.9-3.1,3.4-5.2,4.5c-8.3,4.9-19.2,2.1-24.1-6.3c-2.4-4.1-3-8.9-1.8-13.5
		c1.2-4.6,4.2-8.5,8.2-10.8c2.1-1,4.3-1.9,6.6-2c-3.6-0.3-7.6,0.7-10.9,2.6c-2.2,1.3-4.2,3-5.8,5c-1.6,2-2.7,4.4-3.4,6.8
		s-0.8,5.1-0.5,7.6c0.3,2.5,1.2,5,2.5,7.2c1.5,2.6,3.6,4.8,6.1,6.5c2.5,1.7,5.3,2.8,8.3,3.1l-1.8,37.5l-0.1,5.3
		c-0.7,0.3-1.1,0.8-1.4,1.5c-0.5,0.5-0.6,1.4-0.6,2.4c0,0.9,0.2,1.8,0.5,2.6c0.3,0.5,0.7,0.9,1.2,1.4l-0.1,4.7
		c-0.8,0.5-1.5,1.2-1.9,2.1c-0.6,0.9-0.9,2-0.9,3.1c0,1.1,0.3,2.1,0.8,3.1c0.4,0.8,1,1.3,1.5,1.9l-0.2,5.5c-2.5,1.5-5.7,3.4-8.9,5.6
		c-3.2,2.6-6.2,5.7-7.7,9c-1.4,3.2-1.7,6.5-1.5,9.1c0,2.1,0.4,4.1,1,6.1c-10.5,5.9-23.4,13.9-34.8,23.5c-11.7,9.6-22.2,21-27.4,32.8
		c-11.8,27.1-4.8,53.8-0.4,65.7h-13.9v32.7c-1.3-1.1-2.5-2.5-3.9-3.6c-3.6-2.9-7.7-5.3-10.9-7.2c0.1-0.6,0.4-1,0.4-2
		c0-0.8,0-1.9-0.7-2.6c-0.2-1.2-1.3-2.1-2.3-2.8c-0.8-0.8-1.7-1.4-2.7-1.9v-1.7c0.1-0.1,0.3-0.6,0.5-0.7c0-0.5,0.1-0.6,0.1-0.8
		c0-0.5-0.1-0.6-0.4-1.1c-0.1-0.3-0.3-0.5-0.5-0.7v-1.3c0.1-0.2,0.3-0.5,0.4-0.5c0.1-0.2,0.2-0.5,0.2-0.7c0-0.3,0-0.7-0.3-0.7
		c0-0.5-0.3-0.5-0.4-0.5v-1.6l-0.6-12.2c0,0-0.1-0.2-0.2-0.2s-0.3,0.2-0.3,0.2l-0.5,12.2l-0.2,1.7c-0.1,0-0.3,0-0.4,0.5
		c-0.2,0-0.2,0.3-0.2,0.7c0,0.2,0,0.5,0.1,0.7c0.1,0,0.2,0.4,0.5,0.5l-0.1,1.3c-0.3,0.2-0.5,0.7-0.7,0.7c-0.1,0.5-0.2,0.6-0.2,1.1
		c0,0.3,0.1,0.3,0.2,0.8c0.1,0.1,0.3,0.5,0.5,0.7l-0.1,1.7c-1,0.5-1.9,1.2-2.7,1.9c-1,0.7-1.9,1.5-2.5,2.8c-0.4,0.8-0.6,1.7-0.5,2.6
		c0.1,0.7,0.2,1.4,0.4,2c-0.9,0.6-2.2,1.1-3.2,1.9l-0.1-23.7h0.5c0.9,0,1.7-0.6,1.7-1.5c0-0.7-0.8-1.8-1.7-1.8h-0.5l-0.1-22.6h0.7
		c0.4,0,0.8-0.2,1-0.5c0.3-0.3,0.4-0.7,0.4-1.1c0-0.6-0.4-1.2-1-1.6v-6.5h0.7c0.2,0,0.6-0.6,0.6-1.1c0-0.3-0.4-0.5-0.6-0.5h-0.9
		c0.4-1.1,0.9-3.7-0.1-6.1c-0.5-1.2-1.6-2.2-2.6-3.1c-1.1-0.8-2.2-1.6-3.4-2.2c0.1-0.1,0.1-0.4,0.1-0.6c0-0.3,0-0.5-0.1-0.8
		c0-0.4-0.4-0.6-0.6-0.9c-0.3-0.2-0.6-0.4-0.9-0.7v-0.2c0-0.1,0.1-0.1,0.3-0.1v-0.5c0,0,0-0.1-0.1-0.1c0-0.3-0.1-0.3-0.1-0.3v-0.7
		h0.1c0,0,0-0.3-0.1-0.3c0-0.2,0-0.2-0.1-0.2v-0.4l-0.1-3.6h-0.1l-0.1,3.6v0.5c-0.1,0-0.3,0-0.3,0.2v0.3l0.2,0.3v0.4
		c-0.2,0-0.2,0-0.3,0.3v0.6c0.1,0,0.1,0,0.3,0.1l-0.2,0.2c-0.2,0.3-0.4,0.5-0.8,0.7c-0.3,0.4-0.7,0.5-0.8,0.9v1.3
		c-0.9,0.6-2.2,1.3-3.4,2.3c-1,0.9-2.1,1.9-2.4,3.1c-1,2.5-0.6,5-0.1,6.1h-0.8c-0.3,0-0.6,0.2-0.6,0.5c0,0.5,0.4,1.1,0.6,1.1h0.7
		v6.5c-0.7,0.4-1.2,0.9-1.2,1.6c0,0.4,0.2,0.8,0.5,1.1c0.3,0.3,0.7,0.4,1.1,0.5h0.6l-0.2,22.6h-0.5c-0.9,0-1.7,1-1.7,1.8
		c0,0.9,0.8,1.5,1.7,1.5h0.5l-0.1,15.4c-2.3-4-6.2-8.3-10.5-11.6c-4.8-4-10.1-7.5-14.6-10.2c0.1-0.5,0.3-1.5,0.4-2.3
		c0.1-1.4-0.2-2.7-0.6-4c-0.7-1.6-1.8-2.9-3.3-3.8c-1.2-0.9-2.4-1.6-3.6-2.3l-0.2-2.3c0.2-0.1,0.5-0.5,0.8-1c0.2-0.3,0.3-0.6,0.4-1
		c0-0.5-0.2-1-0.5-1.5c-0.1-0.2-0.2-0.4-0.3-0.5c-0.1-0.1-0.3-0.2-0.5-0.3l-0.1-1.9c0.1-0.1,0.2-0.2,0.3-0.3
		c0.1-0.1,0.2-0.3,0.2-0.4c0.1-0.1,0.3-0.5,0.3-1.1c0-0.3-0.1-0.6-0.3-0.9c-0.2-0.3-0.4-0.6-0.5-1l-0.3-1.8l-0.7-16.2
		c0-0.2-0.1-0.2-0.4-0.2c-0.1,0-0.4,0-0.4,0.2l-0.6,16.2l-0.1,1.8c-0.2,0.4-0.5,0.6-0.8,1c0,0.2-0.1,0.7-0.1,0.9
		c0,0.4,0.1,0.7,0.1,1.1c0.2,0.3,0.4,0.5,0.7,0.7l-0.1,1.9c-0.4,0.1-0.5,0.5-0.8,0.8c-0.2,0.3-0.4,0.9-0.4,1.5c0,0.4,0.2,0.7,0.4,1
		c0.1,0.5,0.3,0.9,0.5,1v2.3c-1.1,0.5-2.3,1.3-3.6,2.3c-1.4,1-2.7,2.3-3.4,3.8c-0.5,1.3-0.7,2.6-0.7,4c0,0.8,0.2,1.5,0.4,2.3
		c-3.9,2.3-8.7,5.4-13.2,9l-0.2,6l-0.8,27c0.1-0.1,0.2-0.1,0.2-0.1c0.1-0.2,0.3-0.2,0.4-0.2c0.3-0.4,0.4-0.3,0.5,0
		c0.4,0.1,0.6,1.2,0.2,1.5c0.1,0.2,0.1,0.5,0.2,0.7c-0.1-0.1-0.2-0.2-0.4-0.3c0,0-0.1,0-0.1,0c0,0,0,0,0-0.1l0,0c0,0,0,0,0,0.1
		c0,0.1-0.1,0.1-0.1,0.2l0,0c0,0-0.1,0.1-0.1,0.1c0.3,0.3,0.7,0.5,0.9,0.5c0.1,1-0.1,1.5-1.1-0.5c0.1,0,0.1,0,0.2,0
		c-0.1,0-0.3-0.2-0.4-0.6v0c0,0,0-0.1,0-0.1h0c0,0,0,0,0,0c0,0,0,0,0,0v0l0,0c0,0,0,0,0,0v0h0v0h0c0,0,0,0,0,0v0h0v0c0,0,0,0,0,0h0
		v0c0,0,0,0.1,0,0.1c0,0,0,0,0,0c-0.2,0.5-0.3,0.7-0.4,0.6c-1.2,2.4-1.3,1.3-1,0c-7.8,2.9-45.1,7.9-42.6,7.9h4.3l-0.4,91.6
		l-0.1,16.2h821.1v-95.3L2068.5,681.9L2068.5,681.9z M2007.5,549.6c-0.7-1.8,1.3-2,2.3-2.7c0.7,0.5,0.4,1.4,0,2.7
		c-0.1,0.1-0.1,0.3-0.1,0.4c0,0.2,0,0.3,0.1,0.4c0.4,0.5,0.3,0.6,0.3,0.6v9.9h-2.9v-9.9c0,0-0.1-0.1,0.3-0.6
		C2007.6,550.2,2007.5,549.9,2007.5,549.6z M1996.8,551.1c0-0.2,0.1-0.4,0.1-0.6c0.4-0.2,0.2-0.6,0.2-0.9c-0.9-2.2,2.6-2,3-3.6
		c0.5,1.6,3.9,1.4,3.3,3.6c-0.1,0.3-0.3,0.6,0,0.9c0.1,0.2,0.2,0.4,0.2,0.6v9.9h-6.9V551.1z M1990.6,560.9v-9.9c0,0-0.1-0.1,0-0.6
		c0.1,0,0.1-0.1,0.2-0.2c0-0.1,0.1-0.2,0.1-0.2c0-0.1,0-0.2-0.1-0.2c0-0.1-0.1-0.1-0.2-0.2c-0.4-1.3-0.5-2.2,0-2.7
		c1.2,0.6,3.1,0.9,2.6,2.7c-0.1,0.1-0.1,0.3-0.1,0.4c0,0.1,0,0.3,0.1,0.4c0.3,0.5,0.1,0.6,0.1,0.6v9.8L1990.6,560.9L1990.6,560.9z
		 M1905.5,549.9c0.3,0,0.1-0.5,0.1-0.7c-0.5-1.4,1.1-1.6,1.8-2.1c0.7,0.3,0.4,1.2,0,2.1c-0.2,0.2-0.3,0.7,0.1,0.7
		c0.1,0.2,0.1,0.4,0.1,0.6v2.7h-2.3l0-2.7c0-0.1,0-0.2,0-0.3C1905.4,550.1,1905.4,550,1905.5,549.9z M1897.2,550.5
		c0-0.2,0.1-0.4,0.1-0.6c0.1,0,0.1-0.5,0-0.7c-0.5-1.6,2.2-1.6,2.4-2.9c0.4,1.2,3.1,1.2,2.6,2.9c-0.2,0.2-0.2,0.7,0,0.7
		c0.1,0.2,0.1,0.4,0,0.6v2.7h-5.2L1897.2,550.5z M1892,553.2v-2.7c0,0-0.2-0.3,0.2-0.6c0.1,0,0.1-0.5,0-0.7c-0.4-0.9-0.7-1.6,0-2.1
		c0.6,0.7,2.3,0.7,1.9,2.1c-0.2,0.2-0.2,0.7,0,0.7c0.1,0.2,0.1,0.4,0.1,0.6v2.7H1892z M1882.6,617.6c0-0.2,0-0.4,0.1-0.5
		c0.3-0.3,0.2-0.5,0-0.9c-0.5-1.3,1.2-1.7,2.2-2.5c0.5,0.5,0.4,1.3,0,2.5c0,0.4-0.1,0.6,0.1,0.9c0.1,0.2,0.1,0.4,0.1,0.5v6.4h-2.6
		V617.6z M1873.5,617.6c0-0.2,0.1-0.4,0.1-0.5c0.1-0.1,0.2-0.3,0.2-0.4c0-0.2,0-0.3-0.1-0.5c-0.8-2,2.5-2,2.6-3.2
		c0.5,1.2,3.5,1.2,2.9,3.2c0,0.4-0.3,0.6,0,0.9c0.1,0.1,0.1,0.2,0.2,0.2c0.1,0.1,0.1,0.2,0.1,0.3v6.4h-6L1873.5,617.6L1873.5,617.6z
		 M1867.9,613.7c1,0.8,2.7,1.1,2.3,2.5c-0.3,0.4-0.3,0.6,0,0.9c0.1,0.2,0.1,0.4,0.1,0.5v6.4h-2.6v-6.4c0-0.2,0.1-0.4,0.1-0.5
		c0.3-0.3,0.3-0.5,0-0.9C1867.8,615,1867.4,614.2,1867.9,613.7z M1856.8,618.6c-0.8-2.4,1.9-2.7,3.5-3.7c0.8,0.8,0.5,2,0,3.7
		c-0.3,0.3-0.4,0.7,0,1.3c0.1,0.2,0.2,0.5,0.3,0.7v3.5h-4v-3.5c0,0-0.1-0.2,0.3-0.7c0.1-0.2,0.2-0.4,0.2-0.6
		C1857,619,1856.9,618.8,1856.8,618.6z M1842.7,618.6c-1-3,3.8-3,4.3-5.1c0.5,2.2,5.5,2.2,4.4,5.1c-0.1,0.3-0.4,0.7,0,1.3
		c0.4,0.5,0.4,0.7,0.4,0.7l0,3.5h-9.4v-3.5c0,0-0.2-0.2,0.1-0.7C1843.1,619.2,1842.8,618.8,1842.7,618.6z M1833.8,614.8
		c1.4,1,4.2,1.3,3.3,3.7c-0.1,0.2-0.1,0.4-0.1,0.7c0,0.2,0.1,0.4,0.2,0.6c0.4,0.5,0.3,0.7,0.3,0.7v3.5h-4v-3.5
		c0-0.2,0.1-0.5,0.1-0.7c0.5-0.6,0.4-1,0.3-1.3C1833.3,616.9,1832.9,615.6,1833.8,614.8z M1757.4,620.5c0,0,0-0.2,0.4-0.7
		c0.1-0.6,0.1-1,0-1.3c-0.8-2.4,1.9-2.7,3.4-3.7c0.8,0.8,0.5,2,0,3.7c0,0.3-0.3,0.7,0.1,1.3c0.4,0.5,0.3,0.7,0.3,0.7v3.5h-4.2V620.5
		z M1743.2,620.5c0,0,0-0.2,0.4-0.7c0.1-0.2,0.2-0.4,0.2-0.6c0-0.2-0.1-0.4-0.2-0.6c-1.2-3,3.8-3,4.3-5.1c0.5,2.1,5.5,2.1,4.3,5.1
		c-0.1,0.2-0.2,0.4-0.1,0.6c0,0.2,0.1,0.4,0.2,0.6c0.4,0.5,0.3,0.7,0.3,0.7l0,3.5h-9.4L1743.2,620.5L1743.2,620.5z M1734.8,614.8
		c1.4,1,4.2,1.3,3.2,3.7c-0.1,0.3-0.4,0.7,0.3,1.3c0.1,0.2,0.2,0.5,0.3,0.7v3.5h-4.2v-3.5c0,0,0-0.2,0.4-0.7
		c0.1-0.2,0.1-0.4,0.1-0.6c0-0.2-0.1-0.4-0.1-0.6C1734.1,616.9,1733.9,615.6,1734.8,614.8z M1724.6,617.3c0-0.1,0.1-0.2,0.2-0.2
		c0.1-0.3,0.1-0.6,0-0.9c-0.7-1.3,1.3-1.7,2.2-2.5c0.5,0.5,0.4,1.3,0,2.5c-0.1,0.3-0.1,0.6,0,0.9c0.1,0.1,0.1,0.2,0.2,0.2
		c0,0.1,0.1,0.2,0.1,0.3v6.4h-2.6v-6.4C1724.6,617.5,1724.6,617.4,1724.6,617.3z M1715.5,617.6c0-0.2,0.1-0.4,0.1-0.5
		c0.3-0.3,0.1-0.5,0-0.9c-0.5-2,2.6-2,2.9-3.2c0.4,1.2,3.4,1.2,2.7,3.2c-0.1,0.4-0.2,0.6,0,0.9c0.1,0.1,0.1,0.2,0.2,0.2
		c0,0.1,0.1,0.2,0.1,0.3v6.4h-6L1715.5,617.6L1715.5,617.6z M1710.1,613.7c0.9,0.8,2.6,1.1,2.1,2.5c0,0.4-0.1,0.6,0.1,0.9v6.9h-2.5
		v-6.4c0-0.1,0-0.2,0-0.3c0.1-0.1,0.1-0.2,0.2-0.2c0.1-0.3,0-0.5,0-0.9C1709.7,615,1709.6,614.2,1710.1,613.7z M1702,516.4
		c0.1-0.2,0.1-0.4,0.3-0.6c0.3-0.3,0.1-0.4,0-0.9c-0.4-1.6,1.6-1.9,2.6-2.6c0.5,0.6,0.4,1.5,0,2.6c-0.2,0.5-0.2,0.6,0,0.9
		c0.3,0.5,0.2,0.6,0.2,0.6v10h-3V516.4z M1691.7,516.4c0.1-0.2,0.1-0.4,0.3-0.6c0.3-0.3,0.1-0.4,0.1-0.9c-0.8-2.1,2.8-1.9,3.1-3.6
		c0.4,1.7,3.8,1.5,3.1,3.6c0,0.5-0.1,0.6,0,0.9c0.1,0.2,0.2,0.4,0.3,0.6v10h-6.9V516.4z M1685.4,526.4v-10c0,0-0.1-0.1,0.3-0.6
		c0.3-0.3,0.3-0.4,0-0.9c-0.4-1.1-0.5-2.1,0-2.6c1.1,0.8,3,1,2.5,2.6c0,0.5-0.2,0.6,0,0.9c0.1,0.2,0.2,0.4,0.2,0.6v10H1685.4z
		 M1630.4,594.3c-0.5-1.2,1.2-1.5,1.9-2.1c0.5,0.6,0.4,1.3,0,2.1c-0.1,0.5-0.1,0.6,0,0.7c0.1,0.2,0.1,0.4,0.1,0.6v2.6h-2.3v-2.6
		c0,0-0.1-0.2,0.3-0.6C1630.6,594.9,1630.4,594.8,1630.4,594.3z M1622.1,594.3c-0.4-1.6,2.2-1.6,2.6-2.7c0.3,1.2,3.1,1.2,2.5,2.7
		c-0.1,0.5-0.1,0.6,0.1,0.7c0.1,0.2,0.1,0.4,0.1,0.6v2.6h-5.3l0-2.6c-0.1-0.2-0.1-0.4,0-0.6C1622.3,594.9,1622.3,594.8,1622.1,594.3
		z M1616.9,598.2v-2.6c0-0.2,0.1-0.4,0.1-0.6c0.3-0.1,0.3-0.2,0-0.7c-0.3-0.8-0.4-1.5,0-2.1c0.9,0.6,2.5,0.9,2.1,2.1
		c-0.1,0.5-0.3,0.6,0,0.7c0.1,0.1,0.1,0.2,0.1,0.3s0,0.2-0.1,0.3v2.6H1616.9z M1602,437.8c-0.8-2.3,2-2.7,3.5-4c0.8,0.9,0.5,2.4,0,4
		c-0.2,0.6-0.2,0.9,0,1.2c0.2,0.3,0.3,0.7,0.4,1.1v4.7h-4.2v-4.7c0,0-0.2-0.4,0.3-1.1C1602.3,438.7,1602,438.4,1602,437.8z
		 M1587,440.1c0-0.4,0.1-0.8,0.2-1.1c0.4-0.3,0.3-0.6,0.2-1.2c-1-2.9,3.8-2.9,4.4-5.2h0.1c0.5,2.3,5.6,2.3,4.4,5.2
		c0,0.6-0.2,0.9,0.2,1.2c0.1,0.4,0.1,0.7,0.1,1.1v4.7h-9.6L1587,440.1L1587,440.1z M1577.8,444.8v-4.7c0-0.4,0.1-0.8,0.3-1.1
		c0.5-0.3,0.4-0.6,0.1-1.2c-0.5-1.6-0.9-2.9,0-4c1.6,1.4,4.4,1.8,3.5,4c-0.1,0.6-0.4,0.9,0.1,1.2c0.4,0.7,0.3,1.1,0.3,1.1v4.7
		H1577.8z M1578.5,553.9v0.9c-0.2-0.5-0.4-0.5-0.5-0.9H1578.5z M1365.8,592.1c0.1-0.2,0.2-0.5,0.2-0.8c-0.6-1.4,1-1.7,1.8-2.4
		c0.5,0.5,0.4,1.4,0,2.4c-0.1,0.2-0.1,0.5,0,0.8c0.3,0.1,0.3,0.2,0.3,0.2v2.7h-2.4v-2.7C1365.7,592.3,1365.6,592.1,1365.8,592.1z
		 M1357.5,592.3c0,0,0-0.1,0-0.1c0,0,0.1-0.1,0.1-0.1c0.3-0.5,0.1-0.5,0-0.8c-0.7-1.8,2.2-1.7,2.6-2.9c0.2,1.2,3,1,2.4,2.9
		c0,0.2-0.3,0.3,0,0.8c0.3,0,0.3,0.2,0.3,0.2v2.7h-5.5L1357.5,592.3z M1352.5,595v-2.7c0,0,0-0.1,0-0.1c0,0,0.1-0.1,0.1-0.1
		c0.1-0.2,0.1-0.5,0.1-0.8c-0.5-0.9-0.7-1.8-0.1-2.4c0.8,0.7,2.5,0.9,1.9,2.4c0,0.2-0.1,0.3,0,0.8c0.2,0,0.2,0.2,0.2,0.2v2.7H1352.5
		L1352.5,595z M1296.4,659.5c0.3,0.1,0.5,0.5,0.2,0.8c0,0,0.1,0.1,0.1,0.1c0.1-0.4,0.1-0.8,0-1.1
		C1296.6,659.4,1296.5,659.4,1296.4,659.5z M1296.7,661C1296.6,661,1296.6,661,1296.7,661c-0.1,0-0.1,0-0.1,0.1c0,0,0,0,0,0
		c0,0,0,0,0,0.1c0,0,0.1,0.1,0.1,0.1C1296.7,661.2,1296.7,661.2,1296.7,661z M1295.9,660.8C1295.9,660.8,1295.9,660.8,1295.9,660.8
		C1295.9,660.8,1295.9,660.8,1295.9,660.8c0.1,0.2,0.2,0.2,0.3,0.2c-0.1,0-0.1-0.1-0.1-0.1c0,0,0,0-0.1,0
		C1296,660.9,1296,660.8,1295.9,660.8L1295.9,660.8L1295.9,660.8L1295.9,660.8z M1295.8,660.8L1295.8,660.8
		C1295.8,660.8,1295.8,660.8,1295.8,660.8C1295.8,660.8,1295.8,660.8,1295.8,660.8z M1295.7,660.7L1295.7,660.7L1295.7,660.7
		L1295.7,660.7L1295.7,660.7z M1295.7,660.7L1295.7,660.7C1295.7,660.7,1295.7,660.7,1295.7,660.7L1295.7,660.7
		C1295.7,660.7,1295.7,660.7,1295.7,660.7z M1295.7,660.7C1295.7,660.7,1295.7,660.7,1295.7,660.7L1295.7,660.7
		C1295.7,660.7,1295.7,660.7,1295.7,660.7L1295.7,660.7C1295.7,660.7,1295.7,660.7,1295.7,660.7
		C1295.7,660.7,1295.7,660.7,1295.7,660.7z M1295.7,660.7C1295.7,660.7,1295.7,660.7,1295.7,660.7
		C1295.7,660.7,1295.6,660.8,1295.7,660.7C1295.6,660.8,1295.6,660.8,1295.7,660.7C1295.6,660.8,1295.6,660.8,1295.7,660.7
		L1295.7,660.7C1295.6,660.8,1295.6,660.8,1295.7,660.7L1295.7,660.7C1295.6,660.8,1295.6,660.8,1295.7,660.7
		c-0.1,0.1-0.1,0.1-0.1,0.1v0h0C1295.6,660.8,1295.6,660.8,1295.7,660.7C1295.6,660.8,1295.6,660.8,1295.7,660.7
		C1295.6,660.8,1295.6,660.8,1295.7,660.7L1295.7,660.7L1295.7,660.7L1295.7,660.7L1295.7,660.7
		C1295.7,660.8,1295.7,660.8,1295.7,660.7L1295.7,660.7C1295.7,660.8,1295.7,660.8,1295.7,660.7
		C1295.7,660.7,1295.7,660.7,1295.7,660.7C1295.7,660.7,1295.7,660.7,1295.7,660.7L1295.7,660.7L1295.7,660.7L1295.7,660.7z
		 M1295.4,660.9C1295.4,660.9,1295.4,660.9,1295.4,660.9C1295.4,660.9,1295.4,660.9,1295.4,660.9
		C1295.5,660.9,1295.5,660.9,1295.4,660.9L1295.4,660.9L1295.4,660.9L1295.4,660.9L1295.4,660.9
		C1295.5,660.8,1295.5,660.8,1295.4,660.9C1295.4,660.8,1295.4,660.8,1295.4,660.9C1295.4,660.8,1295.4,660.8,1295.4,660.9
		C1295.4,660.9,1295.4,660.8,1295.4,660.9c-0.1,0-0.2,0-0.2,0c0,0,0,0,0,0c0,0-0.1,0-0.1,0c0,0,0,0,0,0
		C1295.2,661,1295.3,661,1295.4,660.9z M1295.4,659.9C1295.4,659.9,1295.4,659.9,1295.4,659.9C1295.4,660,1295.4,660,1295.4,659.9
		C1295.4,660,1295.4,660,1295.4,659.9C1295.4,659.9,1295.4,659.9,1295.4,659.9z M1295.4,660L1295.4,660
		C1295.4,660,1295.4,660,1295.4,660C1295.4,660,1295.4,660,1295.4,660z M1295.5,660.8C1295.5,660.8,1295.5,660.8,1295.5,660.8
		C1295.4,660.8,1295.4,660.8,1295.5,660.8C1295.4,660.8,1295.4,660.8,1295.5,660.8c-0.1,0-0.1,0-0.1,0c-0.1,0-0.1,0.1-0.2,0.1
		c0,0,0,0,0,0c0,0-0.1,0-0.1,0c0,0,0,0,0,0C1295.2,661,1295.3,661,1295.5,660.8C1295.4,660.9,1295.4,660.9,1295.5,660.8
		C1295.4,660.9,1295.4,660.9,1295.5,660.8C1295.5,660.9,1295.5,660.9,1295.5,660.8L1295.5,660.8L1295.5,660.8L1295.5,660.8
		L1295.5,660.8z M1295.6,660.4L1295.6,660.4C1295.6,660.4,1295.6,660.4,1295.6,660.4C1295.6,660.4,1295.6,660.4,1295.6,660.4
		L1295.6,660.4C1295.6,660.4,1295.6,660.4,1295.6,660.4L1295.6,660.4L1295.6,660.4L1295.6,660.4
		C1295.6,660.4,1295.6,660.4,1295.6,660.4z M1295.6,660.4C1295.6,660.3,1295.6,660.3,1295.6,660.4c0-0.1,0-0.1-0.1-0.1
		c0-0.1-0.1-0.1-0.1-0.2C1295.5,660.1,1295.5,660.2,1295.6,660.4C1295.6,660.3,1295.6,660.4,1295.6,660.4
		C1295.6,660.4,1295.6,660.4,1295.6,660.4z M1295.6,660.5C1295.6,660.5,1295.7,660.5,1295.6,660.5L1295.6,660.5
		C1295.7,660.5,1295.7,660.5,1295.6,660.5L1295.6,660.5L1295.6,660.5z M1295.7,660.5L1295.7,660.5L1295.7,660.5
		C1295.7,660.5,1295.7,660.5,1295.7,660.5L1295.7,660.5z M1295.7,660.6C1295.7,660.6,1295.7,660.6,1295.7,660.6L1295.7,660.6
		L1295.7,660.6L1295.7,660.6z M1295.7,660.6L1295.7,660.6L1295.7,660.6L1295.7,660.6L1295.7,660.6z M1295.7,660.6
		C1295.7,660.6,1295.7,660.6,1295.7,660.6L1295.7,660.6C1295.7,660.6,1295.7,660.6,1295.7,660.6
		C1295.7,660.6,1295.7,660.6,1295.7,660.6z M1295.7,660.7L1295.7,660.7L1295.7,660.7L1295.7,660.7L1295.7,660.7z M1295.8,660.8
		L1295.8,660.8C1295.8,660.8,1295.8,660.8,1295.8,660.8C1295.8,660.8,1295.8,660.8,1295.8,660.8z M1296.4,659.8
		C1296.4,659.8,1296.4,659.9,1296.4,659.8C1296.6,659.8,1296.5,659.8,1296.4,659.8z M1296.5,660.2c0,0.1,0,0.2,0,0.3
		c0,0,0.1-0.1,0.1-0.1C1296.6,660.3,1296.6,660.2,1296.5,660.2z M1296.5,660.7c0,0,0,0.1-0.1,0.1c0.1,0.1,0.1,0.1,0.1,0.2h0
		c0,0,0-0.1,0-0.1C1296.6,660.8,1296.5,660.8,1296.5,660.7z M1296.7,659.4c-0.1,0-0.2,0-0.4,0.1c0.3,0.1,0.5,0.5,0.2,0.8
		c0,0,0.1,0.1,0.1,0.1C1296.8,660.1,1296.8,659.7,1296.7,659.4z M1295,660c0.1-0.2,0.2-0.3,0.4-0.1c-0.1-0.2-0.2-0.4-0.3-0.5
		c-0.1,0-0.2,0-0.2,0.1c0,0.2,0,0.4,0,0.6c0,0.1,0,0.2,0,0.3c0,0,0,0,0,0c0,0.1,0,0.2,0.1,0.3c0,0,0,0.1,0,0.1c0,0,0,0.1,0,0.1
		c0.1,0,0.1,0,0.2,0c0,0-0.1,0-0.1-0.1h0c0,0,0-0.1-0.1-0.1c0,0,0-0.1,0-0.2c0,0,0-0.1,0-0.1c0,0,0,0,0-0.1c0-0.1,0-0.1,0-0.2
		C1294.9,660.2,1294.9,660.1,1295,660z M1294.8,659.3c0.1,0,0.1,0,0.2,0.1c0.1,0,0.1,0,0.2,0C1295,659.1,1294.9,659.1,1294.8,659.3z
		 M1295.4,659.9C1295.4,659.9,1295.4,659.9,1295.4,659.9C1295.4,660,1295.4,660,1295.4,659.9C1295.4,660,1295.4,660,1295.4,659.9
		C1295.4,659.9,1295.4,659.9,1295.4,659.9z M1295.4,660L1295.4,660C1295.4,660,1295.4,660,1295.4,660
		C1295.4,660,1295.4,660,1295.4,660z M1295.5,660.8C1295.5,660.8,1295.5,660.8,1295.5,660.8C1295.4,660.8,1295.4,660.8,1295.5,660.8
		C1295.4,660.8,1295.4,660.8,1295.5,660.8c-0.1,0-0.1,0-0.1,0c-0.1,0-0.1,0.1-0.2,0.1c0,0,0,0,0,0c0,0-0.1,0-0.1,0c0,0,0,0,0,0
		C1295.2,661,1295.3,661,1295.5,660.8C1295.4,660.9,1295.4,660.9,1295.5,660.8C1295.4,660.9,1295.4,660.9,1295.5,660.8
		C1295.5,660.9,1295.5,660.9,1295.5,660.8L1295.5,660.8L1295.5,660.8L1295.5,660.8L1295.5,660.8z M1295.6,660.4L1295.6,660.4
		C1295.6,660.4,1295.6,660.4,1295.6,660.4C1295.6,660.4,1295.6,660.4,1295.6,660.4L1295.6,660.4
		C1295.6,660.4,1295.6,660.4,1295.6,660.4L1295.6,660.4L1295.6,660.4L1295.6,660.4C1295.6,660.4,1295.6,660.4,1295.6,660.4z
		 M1295.6,660.4C1295.6,660.3,1295.6,660.3,1295.6,660.4c0-0.1,0-0.1-0.1-0.1c0-0.1-0.1-0.1-0.1-0.2
		C1295.5,660.1,1295.5,660.2,1295.6,660.4C1295.6,660.3,1295.6,660.4,1295.6,660.4C1295.6,660.4,1295.6,660.4,1295.6,660.4z
		 M1295.6,660.5C1295.6,660.5,1295.7,660.5,1295.6,660.5L1295.6,660.5C1295.7,660.5,1295.7,660.5,1295.6,660.5L1295.6,660.5
		L1295.6,660.5z M1295.7,660.7L1295.7,660.7C1295.7,660.7,1295.7,660.7,1295.7,660.7L1295.7,660.7
		C1295.7,660.7,1295.7,660.7,1295.7,660.7C1295.7,660.7,1295.7,660.7,1295.7,660.7C1295.7,660.7,1295.7,660.7,1295.7,660.7z
		 M1295.7,660.7C1295.7,660.7,1295.7,660.7,1295.7,660.7C1295.7,660.7,1295.7,660.7,1295.7,660.7
		C1295.7,660.7,1295.6,660.8,1295.7,660.7C1295.6,660.8,1295.6,660.8,1295.7,660.7C1295.6,660.8,1295.6,660.8,1295.7,660.7
		L1295.7,660.7C1295.6,660.8,1295.6,660.8,1295.7,660.7L1295.7,660.7C1295.6,660.8,1295.6,660.8,1295.7,660.7
		c-0.1,0.1-0.1,0.1-0.1,0.1v0h0c0,0,0,0,0,0c0,0,0,0,0,0S1295.6,660.8,1295.7,660.7L1295.7,660.7L1295.7,660.7L1295.7,660.7
		L1295.7,660.7C1295.7,660.8,1295.7,660.8,1295.7,660.7L1295.7,660.7C1295.7,660.8,1295.7,660.8,1295.7,660.7
		C1295.7,660.7,1295.7,660.7,1295.7,660.7C1295.7,660.7,1295.7,660.7,1295.7,660.7L1295.7,660.7L1295.7,660.7z M1295.7,660.6
		C1295.7,660.6,1295.7,660.6,1295.7,660.6L1295.7,660.6L1295.7,660.6L1295.7,660.6z M1295.7,660.6L1295.7,660.6L1295.7,660.6
		L1295.7,660.6L1295.7,660.6z M1295.7,660.6C1295.7,660.6,1295.7,660.6,1295.7,660.6L1295.7,660.6
		C1295.7,660.6,1295.7,660.6,1295.7,660.6C1295.7,660.6,1295.7,660.6,1295.7,660.6z M1295.7,660.7L1295.7,660.7L1295.7,660.7
		L1295.7,660.7L1295.7,660.7z M1295.7,660.7L1295.7,660.7C1295.7,660.7,1295.7,660.7,1295.7,660.7L1295.7,660.7
		C1295.7,660.7,1295.7,660.7,1295.7,660.7z M1295.8,660.8L1295.8,660.8C1295.8,660.8,1295.8,660.8,1295.8,660.8
		C1295.8,660.8,1295.8,660.8,1295.8,660.8z M1296.1,660.9C1296.1,660.9,1296.1,660.9,1296.1,660.9c-0.1,0-0.1-0.1-0.2-0.1v0h0
		c0,0,0,0,0,0c0,0,0,0,0,0c0.1,0.1,0.3,0.2,0.3,0.2C1296.2,661,1296.2,660.9,1296.1,660.9z M1296.4,659.8
		C1296.4,659.8,1296.4,659.9,1296.4,659.8C1296.6,659.8,1296.5,659.8,1296.4,659.8z M1296.5,660.2c0,0.1,0,0.2,0,0.3
		c0,0,0.1-0.1,0.1-0.1C1296.6,660.3,1296.6,660.2,1296.5,660.2z M1296.5,660.7c0,0,0,0.1-0.1,0.1c0.1,0.1,0.1,0.1,0.1,0.2h0
		c0,0,0-0.1,0-0.1C1296.6,660.8,1296.5,660.8,1296.5,660.7z M1296.7,659.4c-0.1,0-0.2,0-0.4,0.1c0.3,0.1,0.5,0.5,0.2,0.8
		c0,0,0.1,0.1,0.1,0.1C1296.8,660.1,1296.8,659.7,1296.7,659.4z M1294.8,659.5c0-0.1,0-0.1,0-0.2c-0.5-0.1-0.8,1.1-0.4,1.5
		c0.1-0.2,0.1-0.4,0.2-0.5C1294.4,660.1,1294.6,659.7,1294.8,659.5z M1295,660c0.1-0.2,0.2-0.3,0.4-0.1c-0.1-0.2-0.2-0.4-0.3-0.5
		c-0.1,0-0.2,0-0.2,0.1c0,0.2,0,0.4,0,0.6c0,0.1,0,0.2,0,0.3c0,0,0,0,0,0c0,0.1,0,0.2,0.1,0.3c0,0,0,0.1,0,0.1c0,0,0,0.1,0,0.1
		c0.1,0,0.1,0,0.2,0c0,0-0.1,0-0.1-0.1h0c0,0,0-0.1-0.1-0.1c0,0,0-0.1,0-0.2c0,0,0-0.1,0-0.1c0,0,0,0,0-0.1c0-0.1,0-0.1,0-0.2
		C1294.9,660.2,1294.9,660.1,1295,660z M1295.7,660.7L1295.7,660.7C1295.7,660.7,1295.7,660.7,1295.7,660.7L1295.7,660.7
		C1295.7,660.7,1295.7,660.7,1295.7,660.7C1295.7,660.7,1295.7,660.7,1295.7,660.7C1295.7,660.7,1295.7,660.7,1295.7,660.7z
		 M1295.7,660.5L1295.7,660.5L1295.7,660.5C1295.7,660.5,1295.7,660.5,1295.7,660.5L1295.7,660.5z M1295.7,660.7
		C1295.7,660.7,1295.7,660.7,1295.7,660.7C1295.7,660.7,1295.7,660.7,1295.7,660.7C1295.7,660.7,1295.6,660.8,1295.7,660.7
		C1295.6,660.8,1295.6,660.8,1295.7,660.7C1295.6,660.8,1295.6,660.8,1295.7,660.7L1295.7,660.7
		C1295.6,660.8,1295.6,660.8,1295.7,660.7L1295.7,660.7C1295.6,660.8,1295.6,660.8,1295.7,660.7c-0.1,0.1-0.1,0.1-0.1,0.1v0h0
		c0,0,0,0,0,0c0,0,0,0,0,0S1295.6,660.8,1295.7,660.7L1295.7,660.7L1295.7,660.7L1295.7,660.7L1295.7,660.7
		C1295.7,660.8,1295.7,660.8,1295.7,660.7L1295.7,660.7C1295.7,660.8,1295.7,660.8,1295.7,660.7
		C1295.7,660.7,1295.7,660.7,1295.7,660.7C1295.7,660.7,1295.7,660.7,1295.7,660.7L1295.7,660.7L1295.7,660.7z M1295.7,660.7
		C1295.7,660.7,1295.7,660.7,1295.7,660.7L1295.7,660.7C1295.7,660.7,1295.7,660.7,1295.7,660.7L1295.7,660.7z M1295.7,660.6
		C1295.7,660.6,1295.7,660.6,1295.7,660.6L1295.7,660.6L1295.7,660.6L1295.7,660.6z M1295.7,660.6
		C1295.7,660.6,1295.7,660.6,1295.7,660.6L1295.7,660.6L1295.7,660.6L1295.7,660.6z M1295.7,660.7L1295.7,660.7L1295.7,660.7
		L1295.7,660.7L1295.7,660.7z M1296.1,660.9C1296.1,660.9,1296.1,660.9,1296.1,660.9c-0.1,0-0.1-0.1-0.2-0.1v0h0c0,0,0,0,0,0
		c0,0,0,0,0,0c0.1,0.1,0.3,0.2,0.3,0.2C1296.2,661,1296.2,660.9,1296.1,660.9z"/>
	
		<linearGradient id="SVGID_00000168096789827908322550000015894579317173654443_" gradientUnits="userSpaceOnUse" x1="891.0097" y1="-7.7893" x2="891.0097" y2="617.0907" gradientTransform="matrix(1 0 0 1 0 397)">
		<stop  offset="0" style="stop-color:#1A7A45"/>
		<stop  offset="0.7849" style="stop-color:#1A7A45"/>
		<stop  offset="1" style="stop-color:#1A7A45"/>
	</linearGradient>
	<path style="fill-rule:evenodd;clip-rule:evenodd;fill:url(#SVGID_00000168096789827908322550000015894579317173654443_);" d="
		M1305.7,662.3c-0.3-0.6-0.6-1.2-1.1-1.6c-0.5-0.5-1-0.9-1.7-1.1c-0.6-0.3-1.3-0.4-1.9-0.4h-4.4l-0.1-26.5l-0.2-50.5h1.4
		c0.6,0,1.2-0.1,1.7-0.4c0.5-0.2,1-0.6,1.4-1s0.7-0.9,0.9-1.5c0.2-0.6,0.3-1.2,0.3-1.7c0-2.7-2-4.6-4.4-4.6h-1.5l-0.4-62.5h1.9
		c1.1,0,2.1-0.4,2.8-1.2s1.2-1.8,1.2-2.8c0-1.8-1.4-3.5-3.1-4v-32.8h1.6c0.5,0,1.1-0.2,1.4-0.6c0.4-0.4,0.6-0.9,0.6-1.5
		c0-0.3,0-0.6-0.1-0.8c-0.1-0.3-0.2-0.5-0.4-0.7c-0.2-0.2-0.4-0.3-0.7-0.5c-0.2-0.1-0.5-0.2-0.8-0.1h-1.8c1-3.3,2.5-9.7-0.4-16.2
		c-1.4-3.2-4-5.9-7.1-8.4c-3-2.5-6.2-4.8-9-6.2c0.2-0.5,0.3-1,0.3-1.5c0-0.8-0.1-1.7-0.4-2.5c-0.4-0.7-1.2-1.7-1.9-2.1
		c-0.8-0.5-1.7-1-2.2-1.7l-0.2-1.2c0.4-0.3,0.4-0.3,0.5-0.6c0.1-0.2,0.1-0.3,0.1-0.8l-0.1-0.6c-0.1-0.1-0.3-0.5-0.5-0.5l-0.1-1.3
		c0.1-0.2,0.4-0.2,0.4-0.5c0.1-0.1,0.1-0.1,0.1-0.2c0-0.1,0-0.2,0-0.2c0-0.3,0-0.6-0.1-0.9c-0.3-0.1-0.3-0.2-0.5-0.2v-1.2l-0.5-10.2
		c0,0,0,0,0,0c0,0,0,0,0,0c0,0,0,0,0,0c0,0,0,0,0,0c-0.1,0-0.2,0.1-0.3,0.1l-0.4,10.2l-0.1,1.2c-0.1,0-0.1,0-0.2,0.1
		c-0.1,0-0.1,0.1-0.1,0.2c-0.2,0.2-0.3,0.5-0.2,0.9c0,0.2,0,0.3,0.1,0.5c0.1,0.3,0.2,0.3,0.4,0.5l-0.2,1.4c-0.1,0-0.4,0.4-0.5,0.5
		c-0.1,0.1-0.1,0.7-0.1,0.7c0,0.4,0,0.5,0.1,0.7c0.1,0.2,0.3,0.2,0.4,0.6v1.2c-0.6,0.6-1.6,1.2-2.3,1.7c-0.8,0.5-1.6,1.5-1.9,2.1
		c-0.3,0.8-0.5,1.6-0.5,2.5c0.1,0.3,0.2,1,0.4,1.5c-3.2,1.7-6.2,3.8-9,6.2c-3,2.5-5.9,5.2-7.2,8.4c-2.9,6.5-1.6,12.9-0.4,16.2h-2.2
		c-0.3,0-0.6,0-0.8,0.1c-0.2,0.1-0.5,0.3-0.7,0.5c-0.2,0.2-0.3,0.4-0.4,0.7c-0.1,0.3-0.1,0.5-0.1,0.8c0,0.6,0.2,1.1,0.6,1.5
		c0.4,0.4,0.9,0.6,1.4,0.6h1.7v4.9c0,0.5-0.1,0.6-0.1,1l0.1,0.3v26.6c-0.9,0.2-1.7,0.8-2.2,1.5c-0.6,0.7-0.9,1.6-0.9,2.5
		c0,2.1,1.8,4,3.9,4h1.9l-0.4,62.5h-1.5c-2.5,0-4.4,1.9-4.4,4.6c0,0.6,0.1,1.2,0.3,1.7c0.2,0.5,0.5,1,0.9,1.5c0.4,0.4,0.9,0.8,1.4,1
		c0.5,0.2,1.1,0.3,1.7,0.3h1.5l-0.2,44.5c-4.4-3.6-9.2-6.7-13.2-9c0.2-0.7,0.4-1.5,0.4-2.3c0.1-1.3-0.2-2.7-0.7-3.9
		c-0.6-1.5-1.9-2.9-3.4-3.9c-1.3-1-2.6-1.8-3.6-2.3v-2.3c0.3-0.1,0.4-0.5,0.5-1c0.2-0.3,0.4-0.6,0.4-1c0-0.6-0.1-1.1-0.4-1.5
		c-0.3-0.3-0.4-0.7-0.8-0.8l-0.1-2c0.2-0.2,0.5-0.5,0.7-0.7c0.1-0.3,0.1-0.7,0.1-1.1c0-0.2-0.1-0.7-0.1-0.9c-0.3-0.4-0.5-0.6-0.8-1
		l-0.1-1.8l-0.6-16.2c0-0.2-0.3-0.2-0.4-0.2c-0.3,0-0.4,0-0.4,0.2l-0.7,16.2l-0.3,1.8c-0.1,0.3-0.3,0.7-0.5,1
		c-0.2,0.3-0.2,0.6-0.3,0.9c0,0.5,0.1,0.9,0.3,1.1c0,0.1,0.1,0.3,0.2,0.4c0.1,0.1,0.2,0.2,0.3,0.3l-0.1,2c-0.2,0.1-0.3,0.2-0.5,0.3
		c-0.1,0.1-0.2,0.3-0.3,0.5c-0.3,0.4-0.5,0.9-0.5,1.5c0.1,0.3,0.2,0.7,0.4,1c0.2,0.5,0.5,0.9,0.8,1l-0.3,2.3
		c-1.3,0.7-2.5,1.5-3.6,2.3c-1.4,1-2.6,2.3-3.3,3.9c-0.5,1.3-0.7,2.6-0.6,3.9c0.1,0.8,0.3,1.7,0.4,2.3c-4.4,2.7-9.7,6.1-14.6,10.1
		c-4.3,3.3-8.2,7.5-10.5,11.6l-0.1-15.4h0.5c0.9,0,1.7-0.6,1.7-1.5c0-0.7-0.8-1.8-1.7-1.8h-0.5l-0.1-22.6h0.6c0.4,0,0.8-0.2,1.1-0.5
		c0.3-0.3,0.5-0.7,0.5-1.1c0-0.6-0.5-1.2-1.2-1.6v-6.5h0.6c0.3,0,0.6-0.6,0.6-1.1c0-0.3-0.4-0.5-0.6-0.5h-0.8
		c0.5-1.1,0.9-3.7-0.1-6.1c-0.4-1.2-1.4-2.2-2.5-3.1c-1.2-0.9-2.5-1.6-3.4-2.3V574c-0.1-0.4-0.5-0.6-0.8-0.9
		c-0.3-0.1-0.6-0.4-0.8-0.7l-0.2-0.2c0.2-0.1,0.2-0.1,0.3-0.1v-0.6c-0.1-0.3-0.1-0.3-0.3-0.3v-0.4l0.2-0.3v-0.3
		c0-0.2-0.2-0.2-0.3-0.2v-0.5l-0.1-3.6h-0.1l-0.1,3.6v0.4c-0.1,0-0.1,0-0.1,0.2c-0.1,0-0.1,0.3-0.1,0.3h0.1v0.7c0,0-0.1,0-0.1,0.3
		c-0.1,0-0.1,0.1-0.1,0.1v0.5c0.1,0,0.3,0,0.3,0.1v0.2c-0.3,0.2-0.6,0.5-0.9,0.7c-0.2,0.4-0.6,0.5-0.6,0.9c-0.1,0.3-0.1,0.5-0.1,0.8
		c0,0.2,0,0.5,0.1,0.6c-1.2,0.6-2.3,1.4-3.4,2.2c-1.1,0.9-2.1,1.9-2.6,3.1c-1.1,2.5-0.5,5-0.1,6.1h-0.9c-0.2,0-0.6,0.2-0.6,0.5
		c0,0.5,0.4,1.1,0.6,1.1h0.7v6.6c-0.7,0.4-1,0.9-1,1.6c0,0.4,0.2,0.8,0.4,1c0.3,0.3,0.6,0.5,1,0.5h0.6l-0.1,22.6h-0.5
		c-0.9,0-1.7,1-1.7,1.8c0,0.9,0.8,1.5,1.7,1.5h0.5l-0.1,23.7c-1-0.8-2.3-1.3-3.2-1.9c0.2-0.7,0.3-1.3,0.4-2c0-0.9-0.2-1.8-0.5-2.6
		c-0.5-1.2-1.4-2.1-2.5-2.8c-0.8-0.7-1.8-1.4-2.7-1.9l-0.1-1.7c0.3-0.1,0.4-0.6,0.5-0.7c0.1-0.5,0.2-0.6,0.2-0.8
		c0-0.5-0.1-0.6-0.2-1.1c-0.1-0.1-0.4-0.5-0.7-0.7l-0.1-1.3c0.3-0.2,0.4-0.5,0.5-0.5c0.1-0.2,0.2-0.5,0.1-0.7c0-0.3,0-0.7-0.2-0.7
		c-0.1-0.5-0.3-0.5-0.4-0.5l-0.2-1.7l-0.5-12.2c0,0-0.2-0.2-0.3-0.2s-0.2,0.2-0.2,0.2l-0.6,12.2v1.6c-0.1,0-0.4,0-0.4,0.5
		c-0.3,0-0.3,0.3-0.3,0.7c0,0.2,0,0.5,0.1,0.7c0.1,0,0.2,0.4,0.4,0.5v1.3c-0.2,0.2-0.4,0.5-0.5,0.7c-0.3,0.5-0.4,0.6-0.4,1.1
		c0,0.3,0.1,0.3,0.1,0.8c0.3,0.1,0.4,0.5,0.5,0.7v1.7c-1,0.5-1.9,1.1-2.7,1.9c-1.1,0.7-2.1,1.5-2.3,2.8c-0.7,0.7-0.7,1.8-0.7,2.6
		c0,1,0.3,1.5,0.4,2c-3.2,1.9-7.3,4.3-10.9,7.2c-1.4,1.2-2.6,2.5-3.9,3.6V624h-13.9c4.4-12,11.4-38.6-0.4-65.7
		c-5.2-11.8-15.7-23.1-27.4-32.8c-11.4-9.6-24.3-17.6-34.8-23.5c0.7-2,1-4,1-6.1c0.1-2.6-0.1-5.9-1.5-9.1c-1.5-3.3-4.4-6.4-7.7-9
		c-3.1-2.2-6.4-4.1-8.9-5.6l-0.2-5.5c0.5-0.6,1.2-1.1,1.5-1.9c0.5-0.9,0.8-2,0.8-3c0-1.1-0.3-2.1-0.9-3.1c-0.5-0.8-1.1-1.5-1.9-2.1
		l-0.2-4.7c0.4-0.4,0.8-0.9,1.2-1.3c0.4-0.8,0.5-1.7,0.5-2.6c0-1-0.1-1.9-0.6-2.4c-0.4-0.7-0.8-1.2-1.4-1.5l-0.1-5.3l-1.8-37.5
		c3-0.4,5.8-1.5,8.3-3.1c2.5-1.7,4.6-3.9,6.1-6.5c1.3-2.2,2.2-4.7,2.5-7.2c0.3-2.5,0.2-5.1-0.5-7.6c-0.7-2.5-1.8-4.8-3.4-6.8
		c-1.6-2-3.5-3.7-5.8-5c-3.4-1.9-7.3-2.9-10.9-2.6c2.3,0.2,4.6,1.1,6.6,2c4.1,2.4,7,6.3,8.2,10.8c1.2,4.5,0.5,9.4-1.8,13.5
		c-4.8,8.3-15.8,11.2-24.1,6.3c-2.1-1.1-3.8-2.6-5.2-4.5c1.6,3.4,4.3,6.2,7.7,8.4c3.2,1.6,6.9,2.6,10.3,2.6l-1.6,37.4l-0.1,5.3
		c-0.7,0.3-1.2,0.9-1.6,1.5c-0.5,0.7-0.8,1.5-0.8,2.4c0,0.9,0.2,1.6,0.6,2.5c0.4,0.4,0.8,0.8,1.3,1.4l-0.3,4.7
		c-0.8,0.4-1.4,1.2-2.1,2.1c-0.5,0.9-0.7,2.1-0.7,3.1c0,1.2,0.1,2.2,0.7,3c0.4,0.8,1,1.4,1.7,1.9l-0.3,5.5c-2.5,1.5-5.9,3.4-9,5.6
		c-3.1,2.6-6.3,5.7-7.7,9c-1.3,3.2-1.8,6.5-1.6,9.1c0.1,2.4,0.4,4.5,1.1,6.1c-10.4,5.9-23.3,13.9-34.7,23.5
		c-8.3,6.8-15.8,14.1-21.3,22.1c-0.5-0.3-1.1-0.4-1.7-0.4h-3l-0.2-50.5h1.2c0.4,0,0.8,0,1.1-0.2c0.3-0.1,0.7-0.3,0.9-0.6
		c0.3-0.3,0.5-0.6,0.6-0.9c0.2-0.4,0.2-0.7,0.2-1.1c0-0.4-0.1-0.8-0.2-1.1s-0.3-0.7-0.6-0.9c-0.3-0.3-0.6-0.5-0.9-0.6
		c-0.3-0.1-0.7-0.2-1.1-0.2h-1.2l-0.3-41h1.4c1.3,0,2.3-1.2,2.3-2.7c0-0.6-0.2-1.1-0.5-1.5c-0.3-0.4-0.8-0.7-1.3-0.9v-12.4h1
		c0.3,0,0.7-0.2,0.9-0.4c0.2-0.3,0.4-0.6,0.4-0.9c0-0.2,0-0.3-0.1-0.5c-0.1-0.2-0.2-0.3-0.3-0.4c-0.1-0.1-0.3-0.2-0.4-0.3
		c-0.2-0.1-0.3-0.1-0.5-0.1h-1.3c0.8-2.2,1.7-6.5-0.2-10.7c-1.1-2.2-2.7-4.1-4.7-5.6c-2.1-1.5-4.2-3-5.9-3.9
		c0.1-0.4,0.2-0.8,0.1-1.2c0-0.5-0.1-1-0.2-1.4c-0.3-0.6-0.8-1.2-1.3-1.6c-0.5-0.3-1-0.6-1.6-1v-0.9c0.1,0,0.2-0.1,0.3-0.1
		c0-0.1,0.2-0.4,0.2-0.7c-0.1-0.1-0.2-0.3-0.2-0.5c0-0.1-0.1-0.1-0.3-0.3v-0.8c0-0.1,0-0.1,0-0.2c0-0.1,0-0.1,0.1-0.1
		c0.2,0,0.2-0.2,0.2-0.2c0-0.4-0.2-0.4-0.2-0.6c-0.1-0.1-0.1-0.1-0.1-0.4l-0.3-0.6l-0.2-6.6l-0.1-0.1l-0.2,0.1l-0.2,6.6v0.6
		c-0.3,0.3-0.3,0.3-0.3,0.4c-0.1,0.1-0.1,0.1-0.1,0.7c0,0,0,0.1,0.1,0.1c0,0.1,0,0.1,0.3,0.3l-0.3,0.8c0,0.1-0.1,0.1-0.3,0.3
		c-0.1,0.2-0.1,0.3-0.1,0.5c0,0.2,0,0.5,0.1,0.7c0.1,0,0.2,0.1,0.3,0.1v0.9c-0.5,0.4-1,0.7-1.6,1c-0.5,0.5-0.9,1-1.3,1.6
		c-0.1,0.5-0.2,1.1-0.1,1.4c0,0.4,0,0.8,0.1,1.2c-2.1,1.1-4.1,2.4-6,3.9c-1.8,1.6-3.8,3.6-4.7,5.6c-1.7,4.2-0.9,8.5-0.1,10.7h-1.4
		c-0.8,0-1.4,0.5-1.4,1.2c0,0.4,0.2,0.7,0.5,1c0.3,0.3,0.6,0.4,1,0.4h1.2v3.2c0,0.4-0.3,0.6-0.3,0.7l0.3,0.3v8.1
		c-1.3,0.3-2.2,1.3-2.2,2.4c0,0.7,0.3,1.4,0.8,1.9s1.2,0.8,1.9,0.8h1.2l-0.1,41h-1c-0.4,0-0.8,0.1-1.1,0.2c-0.3,0.1-0.7,0.4-0.9,0.6
		c-0.3,0.3-0.5,0.6-0.6,0.9c-0.1,0.4-0.2,0.7-0.2,1.1c0,1.7,1.3,2.8,2.9,2.8h1l-0.4,50.4h-2.6c-1.9,0-3.5,1.4-3.5,3.3
		c0,1.7,1.6,3.4,3.5,3.4h2.6l-0.2,70.1h-11.8l-0.1-22.8h0.6c0.2,0,0.4,0,0.5-0.1c0.2-0.1,0.3-0.2,0.5-0.3c0.1-0.1,0.2-0.3,0.3-0.5
		c0.1-0.2,0.1-0.4,0.1-0.5c0-1-0.4-1.3-1-1.3v-6.9h0.6c0.3,0,0.7-0.2,0.7-0.9c0-0.2-0.1-0.3-0.2-0.4c-0.1-0.1-0.3-0.2-0.4-0.2h-0.9
		c0.6-1.3,1-3.6,0-6.1c-0.7-1.1-1.6-2.1-2.6-3c-1.1-0.9-2.5-1.7-3.4-2.4c0.1,0,0.3-0.1,0.3-0.5c0-0.3-0.1-0.5-0.3-0.7
		c0-0.2-0.1-0.4-0.2-0.5c-0.1-0.1-0.3-0.3-0.4-0.4c-0.3-0.2-0.6-0.4-0.9-0.6v-0.5c0.1,0,0.1,0,0.1-0.3c0.1,0,0.1,0,0.1-0.2l-0.1-0.2
		l-0.1-0.4v-0.6c0.1,0,0.1,0,0.1,0c0-0.1,0-0.1-0.1-0.1c0-0.4,0-0.4-0.1-0.4v-0.4l-0.2-3.5V569c-0.1,0-0.1,0-0.1,0.2l-0.3,3.5v0.7
		c0,0-0.3,0-0.3,0.1l0.3,0v0.6l-0.3,0.4c0,0.2-0.1,0.2-0.1,0.2c0,0.2,0.1,0.2,0.1,0.2c0,0.3,0.3,0.3,0.3,0.3v0.5
		c-0.4,0.1-0.5,0.3-0.9,0.6c-0.4,0.2-0.5,0.5-0.7,0.9c-0.1,0.1-0.2,0.2-0.2,0.3c0,0.1-0.1,0.3,0,0.4c0,0.4,0,0.5,0.1,0.5
		c-1.1,0.7-2.2,1.5-3.3,2.4c-1,0.8-1.9,1.8-2.6,3c-1.2,2.5-0.5,4.8-0.1,6.1h-1c-0.2,0-0.3,0.1-0.4,0.2c-0.1,0.1-0.2,0.3-0.2,0.4
		c0,0.6,0.4,0.9,0.7,0.9h0.8v6.9c-0.8,0-1,0.3-1,1.3c0,0.4,0.2,0.7,0.4,1c0.3,0.2,0.6,0.4,1,0.4h0.7l-0.1,22.8h-0.5
		c-0.5,0-0.9,0.2-1.2,0.5s-0.5,0.8-0.5,1.2c0,0.2,0.1,0.4,0.2,0.6c0.1,0.2,0.2,0.4,0.4,0.5c0.2,0.2,0.3,0.3,0.5,0.3
		c0.2,0.1,0.4,0.1,0.6,0.1h0.5l-0.3,28.1h-1c-1-1.2-2.2-2-3.4-2.8c-4.7-4.2-9.8-7.3-13.9-9.5c0.1-0.6,0.3-1.7,0.4-2.7
		c0-1.1-0.1-2.4-0.8-3.6c-0.5-1.4-1.8-2.6-3.1-3.5c-1.2-1.2-2.6-1.9-3.6-2.5v-2.2c0.2-0.1,0.3-0.2,0.4-0.4c0.1-0.1,0.2-0.3,0.2-0.5
		c0.3-0.2,0.3-0.7,0.3-1.2c0-0.5-0.1-1-0.3-1.4c-0.3-0.2-0.5-0.5-0.8-0.7v-2c0.2-0.1,0.2-0.3,0.5-0.6c0-0.3,0.2-0.6,0.2-0.9
		c0-0.6-0.2-0.7-0.3-1.2c-0.2-0.1-0.4-0.5-0.5-0.5l-0.2-2l-0.8-15.6c0-0.1,0-0.1,0-0.2c0-0.1,0-0.1-0.1-0.2c0,0-0.1-0.1-0.1-0.1
		c0,0-0.1,0-0.2,0c-0.3,0-0.3,0.2-0.4,0.5l-0.7,15.6v2c-0.3,0-0.5,0.4-0.7,0.5c-0.2,0.3-0.3,0.8-0.3,1.2c0,0.2,0,0.3,0,0.5
		c0,0.1,0.1,0.3,0.2,0.4c0.1,0.2,0.2,0.4,0.4,0.6v2c-0.3,0.2-0.7,0.5-0.8,0.7c-0.2,0.4-0.4,0.9-0.4,1.4c0,0.2,0,0.4,0.1,0.6
		s0.2,0.4,0.3,0.5c0,0.3,0.4,0.7,0.5,0.8v2.2c-1.3,0.7-2.5,1.5-3.6,2.5c-1.2,0.8-2.5,2.1-3.1,3.5c-0.4,1.2-0.6,2.4-0.6,3.6
		c0,0.9,0.2,1.8,0.5,2.6c-4.2,2.2-9.5,5.4-14,9.5c-1.4,1-2.8,2.1-4,3.3l-0.1-52.9h1.9c0.6,0,1.3-0.2,1.7-0.7
		c0.5-0.5,0.7-1.1,0.8-1.7c0-1.3-1.2-2.3-2.5-2.3h-1.9l-0.1-35.4h0.6c0.3,0,0.5,0,0.8-0.1c0.2-0.1,0.5-0.2,0.7-0.4
		c0.2-0.2,0.3-0.4,0.5-0.6c0.1-0.2,0.2-0.5,0.2-0.8c0-1.2-0.9-2-2.1-2h-0.8l-0.1-28.9h0.9c1,0,1.8-0.7,1.8-1.7
		c0-0.4-0.1-0.8-0.4-1.1s-0.6-0.5-1-0.5v-15.3h0.8c0.1,0,0.2,0,0.3-0.1c0.1,0,0.2-0.1,0.3-0.2c0.1-0.1,0.2-0.2,0.2-0.3
		c0-0.1,0.1-0.2,0.1-0.4c0-0.1,0-0.2,0-0.4c0-0.1-0.1-0.2-0.2-0.3c-0.1-0.1-0.2-0.2-0.3-0.2c-0.1,0-0.2-0.1-0.4-0.1h-0.9
		c0.5-1.6,1.2-4.6-0.1-7.5c-0.6-1.3-1.8-2.6-3.4-3.8c-1.2-1.2-2.5-2.2-4-3c0.1-0.2,0.1-0.4,0.1-0.5c0-0.4-0.1-0.7-0.1-1
		c-0.3-0.7-0.5-1-1-1.2c-0.4-0.2-0.6-0.6-1-0.7v-0.7c0.1,0,0.3,0,0.3-0.1v-1c-0.1,0-0.2,0-0.3-0.1v-0.5c0,0,0-0.1,0.1-0.1
		c0-0.2,0.1-0.2,0.1-0.5c0,0-0.1-0.2-0.3-0.2c0-0.1,0-0.1-0.1-0.1v-0.6l-0.3-4.8c-0.1,0-0.1,0-0.1,0.2l-0.3,4.6v0.6c0,0,0,0,0,0
		c0,0,0,0,0,0c0,0,0,0,0,0c0,0,0,0,0,0l-0.3,0.2c0,0.2,0.1,0.4,0.3,0.5c0,0,0,0.1,0.1,0.1v0.5c-0.1,0-0.3,0-0.4,0.1v1
		c0,0.1,0.3,0.1,0.3,0.1v0.7c-0.3,0.2-0.7,0.4-0.9,0.7c-0.3,0.1-0.5,0.2-0.7,0.4c-0.2,0.2-0.3,0.5-0.3,0.8c-0.1,0.3-0.2,0.6-0.1,1
		c0,0.3,0,0.5,0.1,0.5c-1.6,0.8-3,1.8-4.3,3c-1.3,1.2-2.6,2.5-3.1,3.8c-1.4,2.9-0.8,5.9-0.1,7.5h-1c-0.5,0-1.2,0.5-1.2,1
		c0,0.5,0.6,0.9,1.2,0.9h0.6v15.3c-0.4,0.1-0.7,0.3-1,0.6c-0.3,0.3-0.4,0.7-0.5,1c0,1,0.9,1.7,1.8,1.7h0.9l-0.1,28.9h-0.8
		c-0.5,0-1.1,0.2-1.5,0.6s-0.6,0.9-0.6,1.4c0,1.1,1.1,2,2.1,2h0.6l-0.1,35.4H846c-0.6,0-1.2,0.3-1.6,0.7c-0.4,0.4-0.7,1-0.7,1.6
		c0,0.6,0.2,1.2,0.7,1.7s1,0.7,1.7,0.7h1.9v21h-4.8v-11h0.8c0.2,0,0.4-0.2,0.5-0.3c0.1-0.2,0.2-0.4,0.2-0.6c0-0.2-0.1-0.4-0.3-0.5
		c-0.1-0.2-0.3-0.3-0.5-0.3H843c0.8-2.2,0.8-4.5-0.1-6.7c-0.5-1.2-1.7-2.2-3-3.3c-1-1.1-2.3-1.9-3.6-2.5c0.1,0,0.2-0.1,0.2-0.2
		c0.1-0.1,0.1-0.2,0.1-0.3c0-0.2,0-0.7-0.3-1c-0.2-0.3-0.5-0.6-0.8-0.9c-0.3-0.2-0.7-0.4-0.9-0.7V595l0.2-0.2v-0.6
		c-0.2,0-0.2-0.1-0.2-0.1l-0.2-0.4l0.2-0.2c0-0.4,0.2-0.4,0.2-0.4l-0.2-0.2c0-0.2,0-0.2-0.2-0.2v-0.6l-0.1-3.9H834l-0.1,3.9v0.6
		c-0.1,0-0.2,0-0.2,0.2c-0.1,0-0.1,0.2-0.1,0.2l0.1,0.4l0.2,0.2l-0.1,0.4c-0.1,0-0.2,0.1-0.3,0.1v0.7l0.1,0.1v0.6
		c-0.1,0.3-0.5,0.5-0.8,0.7c-0.4,0.2-0.7,0.5-0.9,0.9v1.5c-1.4,0.6-2.7,1.5-3.8,2.6c-1,1.1-2.2,2.1-2.9,3.3c-1,2.7-0.5,5.3-0.1,6.7
		h-0.8c-0.2,0-0.5,0.1-0.6,0.2c-0.2,0.2-0.3,0.4-0.3,0.6c0,0.1,0,0.2,0.1,0.4s0.1,0.2,0.2,0.3c0.1,0.1,0.2,0.2,0.3,0.2
		c0.1,0,0.2,0.1,0.4,0.1h0.5v11h-6.1v-10.5h0.9c0.4,0,0.7-0.1,1-0.4c0.3-0.3,0.4-0.6,0.4-1c0-0.7-0.6-1.2-1.4-1.2h-1
		c0.5-2.4,1.5-6.3-0.3-10.5c-0.9-1.8-2.6-3.7-4.5-5.4c-1.8-1.3-3.7-2.6-5.7-3.7c0.1-0.3,0.2-0.6,0.1-0.9c0.1-0.5,0-1.1-0.1-1.6
		c-0.4-0.5-0.9-1-1.4-1.4c-0.4-0.5-1-0.7-1.3-1l-0.1-0.6c0-0.2,0.1-0.4,0.2-0.6c0.1-0.1,0.1-0.2,0.1-0.6c0-0.2-0.1-0.5-0.3-0.6h-0.3
		v-0.8c0.1-0.1,0.3-0.1,0.3-0.5v-0.6c-0.1-0.1-0.2-0.2-0.3-0.3V581l-0.2-6.3h-0.4l-0.2,6.3v0.8c-0.1,0.1-0.2,0.2-0.2,0.3v0.6
		c0.1,0.3,0.1,0.3,0.2,0.5l-0.1,0.8h-0.3c-0.1,0.2-0.1,0.4-0.1,0.6c0,0.4,0,0.5,0.1,0.6c0.1,0,0.1,0.2,0.3,0.6v0.6
		c-0.5,0.3-1.1,0.6-1.5,1c-0.5,0.5-0.9,1.1-1.3,1.4c-0.2,0.5-0.2,1.1-0.1,1.6c0,0.3,0,0.6,0.1,0.9c-2,1.1-3.9,2.4-5.7,3.7
		c-2,1.8-3.7,3.7-4.6,5.4c-1.8,4.2-1,8.1-0.1,10.5h-1.5c-0.7,0-1.3,0.5-1.3,1.2c0,0.4,0.2,0.7,0.4,0.9s0.6,0.4,0.9,0.4h1v10.5h-6.2
		v-4.2h0.3c0.9,0,1.6-0.6,1.6-1.6c0-0.6-0.7-1.2-1.6-1.2h-0.7c1.4-3.2,5-13.5,0.4-24.1c-1.8-4-5.5-7.8-9.6-11.5
		c-3.9-3-7.9-5.7-12.1-8.1c0.1-0.7,0.5-1,0.5-2.1c0-1.1-0.2-2.1-0.7-3.1c-0.6-1.2-1.6-2.3-2.9-2.9c-0.9-0.9-1.9-1.6-3-2.2v-1.9
		c0.3-0.1,0.4-0.5,0.5-0.7c0.2-0.2,0.3-0.5,0.4-0.8c0-0.5-0.3-0.8-0.4-1.1c-0.1-0.3-0.5-0.6-0.6-0.7l-0.2-1.5
		c0.3-0.3,0.3-0.5,0.4-0.5c0.2-0.4,0.3-0.8,0.3-1.2c0-0.2-0.1-0.5-0.3-0.6c-0.1-0.4-0.2-0.4-0.4-0.5l-0.1-1.9l-0.6-13
		c1-0.1,2-0.5,2.9-1.1c0.9-0.6,1.6-1.4,2-2.3c2-3.2,0.8-7.4-2.5-9.3c-1-0.5-2.5-1.1-3.8-0.9c0.8,0,1.7,0.5,2.3,0.8
		c2.9,1.7,3.9,5.5,2.3,8.3c-1.8,3-5.7,4-8.4,2.3c-0.7-0.4-1.3-0.8-1.8-1.3c0.7,1.1,1.6,2,2.6,2.7c1.2,0.7,2.5,0.8,3.6,0.8l-0.7,13
		v1.9c-0.1,0-0.4,0-0.4,0.5c-0.2,0.2-0.3,0.4-0.4,0.7c0,0.5,0.1,0.5,0.2,1.1c0.2,0.1,0.3,0.3,0.4,0.5v1.5c-0.3,0.2-0.7,0.4-0.9,0.7
		c0,0.3-0.2,0.6-0.2,1.1c0,0.2,0.2,0.6,0.2,0.8c0.3,0.2,0.5,0.6,0.6,0.7v1.9c-1.1,0.6-2.1,1.3-3,2.2c-1.2,0.7-2.3,1.9-2.8,2.9
		c-0.5,1.1-0.5,2.2-0.5,3.1c0,0.7,0.1,1.4,0.4,2.1c-3.6,2.2-7.9,5-12.1,8.1c-4.2,3.7-7.7,7.5-9.5,11.5c-4.5,10.6-1.2,20.9,0.4,24.1
		h-0.9c-0.3,0-0.6,0.1-0.9,0.4c-0.2,0.2-0.4,0.5-0.4,0.9c0,1.1,0.7,1.6,1.3,1.6h0.8v4.2h-6.6v-10.5h0.9c0.2,0,0.4,0,0.5-0.1
		c0.2-0.1,0.3-0.2,0.5-0.3c0.1-0.1,0.2-0.3,0.3-0.4c0.1-0.2,0.1-0.4,0.1-0.5c0-0.7-0.5-1.2-1.4-1.2h-1.2c0.8-2.4,1.6-6.3-0.3-10.5
		c-0.8-1.8-2.5-3.7-4.5-5.4c-1.7-1.3-3.8-2.7-5.6-3.9c0.1-0.2,0.1-0.5,0.1-0.7c0-0.5,0-1.2-0.3-1.6c-0.3-0.5-0.7-1-1-1.4
		c-0.5-0.4-1.1-0.7-1.7-1v-0.6c0.3-0.4,0.3-0.6,0.4-0.6v-1.1h-0.5v-0.8c0.2-0.1,0.3-0.3,0.4-0.5v-0.3c0-0.1,0-0.3-0.3-0.3
		c0-0.2-0.1-0.2-0.1-0.3V581l-0.4-6.3h-0.2l-0.3,6.3v0.8c-0.1,0.1-0.2,0.2-0.4,0.3v0.6c0,0.3,0.2,0.3,0.4,0.5l-0.1,0.8h-0.3
		c-0.1,0.2-0.1,0.4-0.2,0.6v0.6c0.1,0,0.1,0.2,0.4,0.6l-0.3,0.6c-0.2,0.3-0.8,0.5-1.3,1c-0.5,0.4-0.9,0.9-1.3,1.4
		c-0.2,0.5-0.2,1.1-0.3,1.6c0.1,0.3,0.1,0.7,0.3,0.9c-1.7,1-3.8,2.4-5.8,3.7c-1.8,1.8-3.5,3.7-4.3,5.4c-1.9,4.2-0.9,8.1-0.4,10.5
		h-1.4c-0.7,0-1.3,0.5-1.3,1.2c0,0.3,0.2,0.7,0.4,0.9c0.2,0.2,0.6,0.4,0.9,0.4h1.2v3.1c0,0.2,0,0.4-0.2,0.5l0.2,0.4v6.5h-6.2v-11
		h0.6c0.2,0,0.4-0.1,0.6-0.3s0.2-0.4,0.2-0.6c0-0.2-0.1-0.4-0.2-0.6c-0.1-0.2-0.3-0.3-0.5-0.3h-0.8c0.4-1.1,0.6-2.2,0.5-3.3
		c0-1.1-0.3-2.3-0.8-3.3c-0.4-1.2-1.6-2.2-2.7-3.3c-1.1-1-2.4-1.9-3.8-2.5c0.1,0,0.1-0.2,0.1-0.5c0-0.3,0-0.7-0.1-1
		c0-0.3-0.4-0.6-0.9-0.9c-0.3-0.2-0.5-0.5-0.8-0.7V595c0,0,0-0.1,0.1-0.1c0.1-0.1,0.1-0.1,0.1-0.3l-0.1-0.4c0,0,0,0,0,0c0,0,0,0,0,0
		c0,0,0,0,0,0c0,0,0,0,0,0v-1.2c0-0.2,0-0.2-0.3-0.2v-4.5h-0.3l-0.2,3.9v0.6c0,0-0.1,0-0.1,0.2v0.5l0.1,0.2v0.4
		c-0.1,0-0.2,0-0.3,0.1c-0.1,0.1-0.1,0.4-0.1,0.4c0,0.2,0,0.2,0.2,0.3v0.7c-0.3,0.3-0.6,0.6-0.9,0.7c-0.2,0.1-0.3,0.2-0.4,0.4
		c-0.1,0.1-0.2,0.3-0.2,0.5c-0.1,0.1-0.2,0.3-0.2,0.5c0,0.2,0,0.4,0,0.5v0.5c-1.3,0.7-2.5,1.5-3.6,2.5c-1.3,1.1-2.3,2.1-2.9,3.3
		c-1.2,2.7-0.5,5.3-0.1,6.7h-0.9c-0.4,0-0.9,0.5-0.9,0.8c0,0.2,0.1,0.5,0.3,0.6s0.4,0.3,0.6,0.3h0.8v11h-6.9v-10h1.5
		c0.2,0,0.5,0,0.7-0.1c0.2-0.1,0.4-0.2,0.6-0.4c0.2-0.2,0.3-0.4,0.4-0.6s0.1-0.5,0.1-0.7c0-0.2,0-0.5-0.1-0.7
		c-0.1-0.2-0.2-0.4-0.4-0.6c-0.2-0.2-0.4-0.3-0.6-0.4c-0.2-0.1-0.5-0.1-0.7-0.1h-1.5l-0.3-28.2h0.6c0.8,0,1.6-0.8,1.6-1.4
		c0-0.2,0-0.4-0.1-0.6s-0.2-0.4-0.3-0.5c-0.2-0.2-0.3-0.3-0.5-0.4c-0.2-0.1-0.4-0.1-0.6-0.1h-0.6l-0.1-23l0.8,0c0.2,0,0.3,0,0.5-0.1
		c0.2-0.1,0.3-0.2,0.4-0.3s0.2-0.3,0.3-0.5s0.1-0.3,0.1-0.5c0-0.8-0.4-1.5-0.9-1.5v-6.8h0.5c0.2,0,0.4-0.1,0.5-0.2s0.2-0.3,0.3-0.5
		c0-0.2-0.1-0.4-0.2-0.6c-0.1-0.2-0.3-0.3-0.6-0.3h-0.8c0.5-1.3,1-3.6,0-5.8c-0.5-1.3-1.5-2.4-2.7-3c-1-1-2-1.8-3.2-2.5
		c0.1,0,0.1-0.2,0.1-0.6c0-0.2,0-0.6-0.1-0.7c-0.2-0.4-0.5-0.7-0.8-1c-0.2-0.2-0.5-0.2-0.8-0.4v-0.6c0,0,0.1,0,0.1-0.3v-0.4
		c-0.1,0-0.1-0.3-0.1-0.3v-0.6c0-0.2,0.1-0.2,0.1-0.2c0,0,0-0.1,0-0.1c0,0,0-0.1-0.1-0.1l-0.1-0.2v-0.3l-0.1-3.7h-0.3l-0.1,3.7v0.3
		l-0.1,0.2c-0.1,0.1-0.1,0.1-0.1,0.3v0.2h0.1l0.1,0.3l-0.1,0.3l-0.1,0.3v0.4c0,0.3,0,0.3,0.1,0.3v0.7c-0.4,0.1-0.5,0.2-0.9,0.4
		c-0.3,0.3-0.5,0.6-0.6,1c-0.1,0.2-0.2,0.5-0.1,0.7c0,0.3,0,0.6,0.1,0.6c-1.2,0.7-2.4,1.5-3.4,2.5c-1.2,0.7-2.1,1.8-2.6,3
		c-0.9,2.2-0.4,4.5-0.1,5.8H644c-0.4,0-0.7,0.4-0.7,0.9c0,0.2,0.1,0.3,0.2,0.5s0.3,0.2,0.5,0.2h0.5v6.8c-0.5,0-1,0.7-1,1.5
		c0,0.2,0,0.4,0.1,0.5s0.2,0.3,0.3,0.5c0.1,0.1,0.3,0.2,0.5,0.3c0.2,0.1,0.4,0.1,0.5,0.1h0.7v23h-0.7c-0.9,0-1.5,0.6-1.5,1.7
		c0,0.4,0.2,0.7,0.5,1c0.3,0.3,0.7,0.4,1,0.4h0.7l-0.1,28.1h-1.7c-0.5,0-1,0.2-1.3,0.5c-0.4,0.3-0.6,0.8-0.6,1.3
		c0,0.5,0.2,1,0.6,1.3c0.4,0.3,0.8,0.5,1.3,0.6h1.7l-0.1,10v1.7l-0.1,18.8h0.1v37.5H641v-7.2h0.2c0.3,0,0.5,0,0.8-0.1
		c0.7-0.2,1.2-0.7,1.2-1.4c0-0.5-0.2-1-0.6-1.3c-0.4-0.4-0.8-0.5-1.3-0.5h-0.8c1.5-4,6-16.9,0.3-30.1c-2.2-5.2-6.8-10.2-11.8-14.2
		c-5.1-4.1-10.5-7.9-15.2-10.3c0.4-0.9,0.4-1.8,0.7-2.6c0-1.4-0.3-2.7-0.8-4c-0.7-1.6-1.9-3-3.4-3.9c-1.4-1-2.7-1.7-3.9-2.4v-2.6
		c0.3-0.2,0.5-0.4,0.6-0.7c0.2-0.4,0.3-0.9,0.3-1.3c0-0.5-0.1-0.7-0.4-1.3c-0.1-0.5-0.5-0.6-0.8-0.7v-2.3c0.1-0.1,0.2-0.2,0.2-0.3
		c0-0.1,0.1-0.2,0.1-0.3c0.4-0.2,0.4-0.6,0.4-1.2c0-0.4-0.1-0.7-0.4-1c0-0.3-0.3-0.5-0.7-0.6v-2.3l-0.8-16.7c0-0.1-0.1-0.2-0.4-0.2
		c-0.1,0-0.4,0.2-0.4,0.2l-0.7,16.7v2.3c-0.5,0.1-0.5,0.3-0.8,0.6c-0.1,0.4-0.4,0.8-0.4,1c0,0.4,0.1,0.8,0.4,1.2
		c0.1,0.3,0.3,0.5,0.5,0.6v2.3c-0.5,0.1-0.9,0.3-0.9,0.7c-0.3,0.5-0.5,0.8-0.5,1.3c0,0.6,0.3,0.9,0.4,1.3c0,0.2,0.1,0.4,0.3,0.5
		s0.3,0.2,0.5,0.2l-0.1,2.5c-1,0.7-2.6,1.4-3.9,2.4c-1.4,1-2.7,2.3-3.4,3.9c-0.5,1.4-0.8,2.6-0.5,4c0,0.9,0.1,1.8,0.4,2.6
		c-5.4,3-10.5,6.4-15.2,10.3c0,0,0,0-0.1,0.1c-5.2,4-9.7,9-11.9,14.1c-5.7,13.2-1.3,26,0.4,30.1h-0.9c-0.9,0-1.7,0.9-1.7,1.9
		c0,0.9,0.8,1.5,1.7,1.5h0.9v7.1h-6.8l-0.1-44.4h2c1.3,0,2.3-1,2.3-2.1c0-1.4-1.1-2.5-2.3-2.5h-2l-0.2-22.2l-0.1-13.1h0.6
		c1.2,0,2.2-0.9,2.2-2c0-1.2-1-2.1-2.2-2.1h-0.6l-0.1-28.9h0.8c1,0,2-0.6,2-1.8c0-0.4-0.2-0.7-0.4-1c-0.3-0.3-0.6-0.5-1-0.5V546h0.8
		c0.6,0,0.9-0.3,0.9-0.9c0-0.1,0-0.3,0-0.4s-0.1-0.2-0.2-0.3c-0.1-0.1-0.2-0.2-0.3-0.2c-0.1,0-0.2-0.1-0.4-0.1h-1
		c0.5-1.6,1.3-4.5-0.1-7.4c-0.5-1.5-1.8-2.8-3.1-3.8c-1.3-1.1-2.7-2.1-4.2-3v-0.7c0-0.3-0.1-0.7-0.2-0.9c0-0.3-0.4-0.8-0.8-1.1
		c-0.4-0.2-0.8-0.4-1.1-0.7v-0.6c0-0.2,0.1-0.2,0.3-0.3v-0.8c-0.1,0-0.3-0.2-0.3-0.2l-0.1-0.5c0.1,0,0.1,0,0.1-0.2
		c0.1,0,0.1-0.3,0.1-0.3c0-0.1,0-0.3-0.1-0.4h-0.1v-0.8l-0.3-4.3c0-0.4-0.1-0.4-0.1-0.4s-0.1,0-0.1,0.4l-0.3,4.3v0.8c0,0,0,0,0,0
		c0,0,0,0,0,0c0,0,0,0,0,0c0,0,0,0,0,0v0.6c0,0.2,0,0.2,0.1,0.2l-0.1,0.5c0,0,0,0.2-0.1,0.2v0.8c0.1,0.1,0.1,0.1,0.1,0.3v0.7
		c-0.3,0.3-0.7,0.5-1,0.7c-0.4,0.3-0.7,0.7-0.9,1.1c-0.1,0.3-0.2,0.6-0.1,0.9c0,0.3,0,0.5,0.1,0.7c-1.5,0.8-2.9,1.8-4.2,3
		c-1.4,1-2.7,2.3-3.3,3.8c-1.3,2.9-0.7,5.9-0.1,7.4h-1c-0.3,0-0.5,0.1-0.7,0.3s-0.3,0.4-0.3,0.7c0,0.7,0.5,0.9,1,0.9h0.8v2.2
		c0,0.2,0,0.3-0.1,0.5l0.1,0.2v12.3c-0.8,0.1-1.4,0.8-1.4,1.5c0,1.2,0.8,1.8,1.8,1.8h0.9l-0.4,28.9h-0.5c-0.3,0-0.5,0-0.8,0.1
		c-0.3,0.1-0.5,0.2-0.7,0.5c-0.1,0.1-0.2,0.2-0.3,0.3c-0.1,0.1-0.1,0.2-0.2,0.3c-0.1,0.3-0.2,0.5-0.1,0.8c0,0.5,0.2,1,0.6,1.4
		c0.4,0.4,0.9,0.6,1.4,0.5h0.5l-0.1,35.3h-2c-1.3,0-2.2,1.2-2.2,2.5c0,0.3,0.1,0.6,0.2,0.8s0.3,0.5,0.5,0.7c0.2,0.2,0.5,0.4,0.7,0.5
		c0.3,0.1,0.5,0.2,0.8,0.1h2l-0.1,44.4h-4.3c1-4.5,2.1-11.1-1-18.3c-1.6-3.7-5-7.1-8.6-10.2c-3.8-2.9-7.8-5.5-11-7.6
		c0.3-0.3,0.3-1,0.4-1.7c0-1-0.2-1.9-0.5-2.8c-0.6-1.1-1.5-2.1-2.5-2.9c-0.9-0.9-1.8-1.3-2.7-1.9v-1.7c0.1-0.1,0.2-0.3,0.5-0.6
		c0-0.3,0.1-0.6,0.1-0.9c0-0.6-0.1-0.7-0.2-1.2c-0.1,0-0.2-0.1-0.3-0.2c-0.1-0.1-0.2-0.2-0.2-0.3l-0.1-1.4c0.2-0.2,0.3-0.4,0.4-0.6
		c0-0.2,0.1-0.5,0.1-0.7c0-0.2-0.1-0.5-0.1-0.7c-0.1-0.2-0.3-0.5-0.5-0.5l-0.1-1.6l-0.5-12.2c0-0.2-0.1-0.2-0.2-0.2s-0.1,0-0.1,0.2
		l-0.6,12.2v1.6c-0.3,0-0.5,0.3-0.6,0.5c-0.1,0.2-0.1,0.5-0.1,0.7c0,0.1,0.1,0.5,0.1,0.7c0,0.1,0,0.2,0.1,0.4
		c0.1,0.1,0.1,0.2,0.3,0.3v1.4c-0.2,0.2-0.4,0.4-0.6,0.5c-0.1,0.5-0.3,0.6-0.3,1.2c0,0.3,0.1,0.6,0.3,0.9c0,0.1,0.1,0.2,0.2,0.3
		c0.1,0.1,0.2,0.2,0.3,0.2l-0.3,1.7c-0.6,0.6-1.7,1-2.7,1.9c-0.9,0.8-1.8,1.8-2.4,2.9c-0.5,1.1-0.5,1.8-0.5,2.8
		c0,0.7,0.1,1.4,0.4,1.7c-3.8,2.3-7.5,4.8-10.9,7.6c-3.9,3.1-7,6.6-8.7,10.2c-3.1,7.2-2.1,13.8-0.9,18.3H476v95.3h821.2l-0.1-12.4
		l-0.5-95.3h4.3c2.7,0,5.1-2.5,5.1-5.2C1306,663.5,1305.9,662.9,1305.7,662.3z M559.3,549.6c-0.5-1.8,1.4-2,2.6-2.7
		c0.5,0.5,0.4,1.4,0,2.7c-0.1,0.1-0.1,0.1-0.2,0.2c0,0.1,0,0.2,0,0.2c0,0.1,0,0.2,0,0.2c0,0.1,0.1,0.1,0.2,0.2c0.1,0.5,0,0.6,0,0.6
		v9.8h-2.7v-9.8c0,0-0.1-0.1,0.1-0.6c0.1-0.1,0.1-0.3,0.1-0.4C559.4,549.9,559.4,549.8,559.3,549.6z M548.8,551.1
		c0-0.2,0.1-0.4,0.2-0.6c0.3-0.2,0.1-0.6,0-0.9c-0.6-2.2,2.7-2,3.3-3.6c0.4,1.6,3.9,1.4,3,3.6c0,0.3-0.1,0.6,0.2,0.9
		c0.1,0.2,0.1,0.4,0.1,0.6v9.9h-6.9V551.1z M542.4,560.9v-9.9c0,0-0.1-0.1,0.3-0.6c0.1-0.1,0.1-0.3,0.1-0.4c0-0.1,0-0.3-0.1-0.4
		c-0.4-1.3-0.7-2.2,0-2.7c1,0.6,3,0.9,2.3,2.7c0,0.3-0.1,0.6,0,0.9c0.4,0.5,0.2,0.6,0.2,0.6v9.9H542.4L542.4,560.9z M1291.2,480.1
		c0.1-0.2,0.2-0.4,0.4-0.6c0.5-0.6,0.3-1.4,0-2c-1.3-3.6,3-4.3,5.4-6.1c1.3,1.5,0.8,3.5,0,6.1c-0.3,0.6-0.7,1.4,0,2
		c0.2,0.2,0.3,0.4,0.3,0.6s0.1,0.5,0.1,0.7v21.5h-6.2v-21.5C1291.2,480.6,1291.2,480.4,1291.2,480.1z M1268.7,480.9
		c0-0.2,0-0.5,0.1-0.7c0.1-0.2,0.2-0.4,0.3-0.6c0.7-0.6,0.4-1.4,0.3-2c-1.8-4.6,5.8-4.5,6.8-7.9c0.8,3.5,8.4,3.3,6.9,7.9
		c-0.4,0.6-0.5,1.4,0,2c0.2,0.2,0.3,0.4,0.4,0.6c0.1,0.2,0.1,0.5,0.1,0.7v21.5h-14.8V480.9z M1254.7,502.3v-21.5
		c0-0.2,0-0.5,0.1-0.7c0.1-0.2,0.2-0.4,0.3-0.6c0.7-0.6,0.3-1.4,0.1-2c-0.9-2.6-1.4-4.6-0.1-6.1c2.4,1.8,6.8,2.4,5.4,6.1
		c-0.3,0.6-0.5,1.4,0.2,2c0.2,0.4,0.4,0.9,0.4,1.3v21.5H1254.7z M1197.8,592.3c0,0,0-0.1,0.2-0.2c0.1-0.5,0-0.5,0-0.8
		c-0.5-1.4,1.2-1.7,1.9-2.4c0.5,0.5,0.4,1.4-0.1,2.4c0,0.3,0,0.5,0.1,0.8c0,0,0.1,0,0.1,0.1c0,0,0,0.1,0,0.1v2.7h-2.3V592.3z
		 M1189.6,592.3c0,0,0-0.1,0.3-0.2c0.3-0.5,0-0.5,0-0.8c-0.5-1.9,2.2-1.7,2.4-2.9c0.4,1.2,3.3,1,2.6,2.9c-0.1,0.2-0.3,0.3,0,0.8
		c0,0,0.1,0,0.1,0.1c0,0,0,0.1,0,0.1l0,2.7h-5.5V592.3z M1184.5,595v-2.7c0,0,0-0.1,0.3-0.2c0.1-0.2,0.1-0.5,0-0.8
		c-0.4-0.9-0.5-1.9,0-2.4c0.8,0.7,2.5,0.9,1.8,2.4c0,0.3,0,0.5,0.2,0.8c0.2,0.1,0.1,0.2,0.1,0.2v2.7H1184.5z M974,553.9h0.5
		c-0.1,0.4-0.4,0.4-0.5,0.9V553.9z M970.9,437.8c-0.9-2.3,1.9-2.7,3.5-4c0.9,1.2,0.5,2.4,0,4c-0.3,0.6-0.4,0.9,0.1,1.2
		c0.2,0.4,0.2,0.7,0.3,1.1v4.7h-4.3v-4.7c0,0-0.1-0.4,0.3-1.1C971.3,438.7,971,438.4,970.9,437.8z M956,440.1c0-0.4,0-0.8,0.1-1.1
		c0.4-0.3,0.2-0.6,0.2-1.2c-1.2-2.9,3.9-2.9,4.4-5.2h0.1c0.7,2.3,5.5,2.3,4.4,5.2c-0.1,0.6-0.2,0.9,0.1,1.2c0.1,0.4,0.2,0.7,0.3,1.1
		v4.7H956V440.1z M946.6,444.8v-4.7c0-0.4,0.2-0.8,0.4-1.1c0.2-0.3,0.2-0.6,0-1.2c-0.5-1.6-0.8-3.1,0-4c1.5,1.4,4.3,1.8,3.5,4
		c0,0.6-0.2,0.9,0,1.2c0.5,0.7,0.3,1.1,0.3,1.1v4.7H946.6z M933.5,594.3c-0.4-1.2,1.2-1.6,2.1-2.1c0.4,0.6,0.3,1.3,0,2.1
		c-0.2,0.5-0.2,0.6,0,0.7c0.1,0.2,0.1,0.4,0.1,0.6v2.6h-2.2v-2.6c0-0.1-0.1-0.2-0.1-0.3s0-0.2,0.1-0.3
		C933.7,594.9,933.6,594.8,933.5,594.3z M925.2,595.6c0-0.2,0.1-0.4,0.1-0.6c0.2-0.1,0.2-0.2,0.1-0.7c-0.7-1.6,2.2-1.6,2.5-2.7
		c0.4,1.2,3,1.2,2.6,2.7c-0.3,0.5-0.3,0.6,0,0.7c0.1,0.2,0.1,0.4,0,0.6l0,2.6h-5.3V595.6z M920.1,598.2v-2.6c0-0.2,0.1-0.4,0.1-0.6
		c0.1-0.1,0.1-0.2,0-0.7c-0.4-0.8-0.5-1.6,0-2.1c0.8,0.6,2.5,0.9,1.9,2.1c0,0.5-0.2,0.6,0,0.7c0.4,0.4,0.3,0.6,0.3,0.6v2.6H920.1z
		 M864.2,516.4c0-0.2,0.1-0.4,0.2-0.6c0.2-0.3,0-0.4,0-0.9c-0.5-1.6,1.4-1.9,2.5-2.6c0.5,0.6,0.4,1.5,0,2.6c-0.3,0.5-0.3,0.6,0,0.9
		c0.4,0.5,0.2,0.6,0.2,0.6v10h-3V516.4z M853.9,516.4c0-0.2,0.1-0.4,0.3-0.6c0.1-0.3,0-0.4,0-0.9c-0.7-2.1,2.7-1.9,3.1-3.6
		c0.4,1.7,3.9,1.5,3.1,3.6c0,0.5-0.1,0.6,0.1,0.9c0.1,0.2,0.2,0.4,0.3,0.6v10h-6.9V516.4z M847.5,526.4v-10c0,0-0.1-0.1,0.2-0.6
		c0.2-0.3,0.2-0.4,0-0.9c-0.4-1.1-0.5-2.1,0-2.6c1,0.8,3,1,2.6,2.6c-0.1,0.5-0.3,0.6,0,0.9c0.1,0.2,0.2,0.4,0.3,0.6v10H847.5z
		 M840.2,617.1c0.3-0.3,0.1-0.5,0.1-0.9c-0.5-1.3,1.1-1.7,2.1-2.5c0.5,0.5,0.4,1.3,0,2.5c0,0.4-0.1,0.6,0,0.9c0.1,0,0.2,0.1,0.2,0.2
		c0,0.1,0,0.2,0,0.3v6.4h-2.5V617.1z M831,617.6c0-0.1,0-0.2,0.1-0.3c0-0.1,0.1-0.2,0.2-0.2c0.2-0.3,0.1-0.5,0-0.9
		c-0.7-1.9,2.3-1.9,2.7-3.2c0.3,1.2,3.4,1.2,2.9,3.2c-0.1,0.4-0.3,0.6,0,0.9c0.1,0.2,0.2,0.3,0.2,0.5v6.4h-6V617.6z M825.6,613.7
		c0.9,0.8,2.9,1.1,2.2,2.5c-0.1,0.3-0.1,0.6,0,0.9c0.1,0.1,0.1,0.2,0.2,0.2c0,0.1,0,0.2,0,0.3v6.4h-2.6v-6.4c0-0.1,0-0.2,0.1-0.3
		c0-0.1,0.1-0.2,0.2-0.2c0.1-0.3,0.1-0.6,0-0.9C825.2,615,825,614.2,825.6,613.7z M814,620.5c0-0.2,0.1-0.5,0.3-0.7
		c0.7-0.6,0.4-1,0.3-1.3c-0.9-2.4,1.8-2.7,3.2-3.7c0.9,0.8,0.7,2,0,3.7c-0.1,0.2-0.1,0.4-0.1,0.6c0,0.2,0,0.4,0.1,0.6
		c0.4,0.5,0.4,0.7,0.4,0.7v3.5H814L814,620.5L814,620.5z M800.3,618.6c-1.2-3,3.8-3,4.3-5.1c0.5,2.2,5.5,2.2,4.3,5.1
		c-0.1,0.2-0.2,0.4-0.2,0.6c0,0.2,0,0.4,0.2,0.6c0.4,0.5,0.4,0.7,0.4,0.7v3.5h-9.4l0-3.5c0,0-0.1-0.2,0.3-0.7
		c0.1-0.2,0.2-0.4,0.2-0.6C800.5,619,800.4,618.8,800.3,618.6z M791.4,614.8c1.4,1,4.2,1.3,3.4,3.7c-0.1,0.3-0.1,0.7,0,1.3
		c0.4,0.5,0.4,0.7,0.4,0.7v3.5H791v-3.5c0,0-0.1-0.2,0.3-0.7c0.4-0.6,0.1-1,0.1-1.3C790.8,616.9,790.6,615.6,791.4,614.8z
		 M715.5,618.6c-0.9-2.4,1.8-2.7,3.3-3.7c0.9,0.8,0.5,2,0,3.7c-0.1,0.3-0.3,0.7,0.3,1.3c0.1,0.2,0.1,0.5,0.1,0.7v3.5h-4v-3.5
		c0,0-0.1-0.2,0.3-0.7c0.1-0.2,0.2-0.4,0.2-0.6C715.6,619,715.5,618.8,715.5,618.6z M701.2,618.6c-1-3,3.9-3,4.4-5.1
		c0.5,2.2,5.3,2.2,4.3,5.1c-0.2,0.3-0.4,0.7,0.1,1.3c0.3,0.5,0.1,0.7,0.1,0.7v3.5h-9.4l0-3.5c0,0,0-0.2,0.4-0.7
		C701.5,619.2,701.3,618.8,701.2,618.6z M692.2,614.8c1.6,1,4.3,1.3,3.5,3.7c-0.1,0.2-0.2,0.4-0.2,0.6c0,0.2,0,0.4,0.2,0.6
		c0.4,0.5,0.3,0.7,0.3,0.7v3.5h-4v-3.5c0-0.2,0.1-0.5,0.3-0.7c0.4-0.6,0.3-1,0-1.3C691.7,616.9,691.4,615.6,692.2,614.8z
		 M682.2,617.6c0-0.2,0-0.4,0.1-0.5c0.3-0.3,0.3-0.5,0-0.9c-0.4-1.3,1.3-1.7,2.3-2.5c0.5,0.5,0.1,1.3,0,2.5c-0.3,0.4-0.3,0.6,0,0.9
		c0.1,0.2,0.1,0.3,0.1,0.5v6.4h-2.6L682.2,617.6L682.2,617.6z M673.1,617.6c0-0.1,0-0.2,0.1-0.3c0-0.1,0.1-0.2,0.2-0.2
		c0.2-0.3,0-0.5,0-0.9c-0.7-1.9,2.3-1.9,2.9-3.2c0.2,1.2,3.4,1.2,2.6,3.2c-0.1,0.1-0.1,0.3-0.1,0.5c0,0.2,0.1,0.3,0.2,0.4
		c0.1,0.2,0.1,0.3,0.1,0.5v6.4h-6L673.1,617.6L673.1,617.6z M667.6,613.7c1,0.8,2.7,1.1,2.2,2.5c-0.1,0.4-0.3,0.6,0,0.9
		c0.1,0.2,0.1,0.4,0.1,0.5v6.4h-2.6v-6.4c0-0.2,0-0.4,0.1-0.5c0.3-0.3,0.1-0.5,0.1-0.9C667.2,615,667.1,614.2,667.6,613.7z
		 M658.2,550.5c0-0.2,0-0.4,0.1-0.6c0.1,0,0.1-0.5,0-0.7c-0.4-1.4,1.3-1.4,2-2.1c0.7,0.4,0.4,1.2,0,2.1c-0.1,0.2-0.1,0.7,0,0.7
		c0.4,0.3,0.2,0.6,0.2,0.6v2.7h-2.3V550.5z M652.8,546.4c0.2,1.2,3,1.2,2.5,2.9c-0.1,0.2-0.1,0.7,0,0.7c0.1,0.2,0.1,0.4,0.1,0.6
		l0,2.7h-5.2v-2.7c-0.1-0.2-0.1-0.4,0-0.6c0.1,0,0.1-0.5,0-0.7C649.6,547.6,652.4,547.6,652.8,546.4z M644.8,553.2v-2.7
		c0-0.2,0-0.4,0.1-0.6c0.4,0,0.3-0.5,0.1-0.7c-0.4-0.9-0.7-1.8,0-2.1c0.8,0.4,2.3,0.7,1.8,2.1c0,0.2-0.1,0.7,0.1,0.7
		c0.1,0.1,0.1,0.2,0.2,0.3c0,0.1,0,0.2,0,0.3l0,2.7H644.8z"/>
</g>
<g>
	
		<linearGradient id="SVGID_00000050646791594253862410000013515757908742107038_" gradientUnits="userSpaceOnUse" x1="2417.2036" y1="511.6092" x2="884.7654" y2="511.6092" gradientTransform="matrix(1 0 0 -1 0 1182.8197)">
		<stop  offset="0.1512" style="stop-color:#1A7A45"/>
		<stop  offset="0.6682" style="stop-color:#1A7A45"/>
	</linearGradient>
	<path style="fill:url(#SVGID_00000050646791594253862410000013515757908742107038_);" d="M2560,554.4l0,272.4H1201.5
		c11.1-15.3,33.7-29.6,71.6-49.6c2.2-1.2,4.5-2.4,6.9-3.6c5.4-2.8,11.1-5.8,17.1-8.8c11.5-5.9,24.1-12.2,37.8-19.1
		c105.8-53.4,370.8,48.3,572.3-64.8c1.4-0.8,2.9-1.6,4.3-2.5c22.6-13.1,44.3-28.9,64.9-48c1.5-1.3,2.9-2.7,4.3-4.1
		c3.3-3.2,6.7-6.3,10.1-9.3c6.1-5.4,12.3-10.5,18.6-15.4c165.1-127.2,411.6-86.3,519.7-47.3L2560,554.4L2560,554.4z"/>
	
		<linearGradient id="SVGID_00000114759110546923819820000000721526718513517704_" gradientUnits="userSpaceOnUse" x1="1215.6936" y1="511.6092" x2="-316.7446" y2="511.6092" gradientTransform="matrix(1 0 0 -1 0 1182.8197)">
		<stop  offset="0.1512" style="stop-color:#1A7A45"/>
		<stop  offset="0.6682" style="stop-color:#1A7A45"/>
	</linearGradient>
	<path style="fill:url(#SVGID_00000114759110546923819820000000721526718513517704_);" d="M1358.5,826.7H0V554.4h30.8
		c105.9-38.2,344.9-78.3,509.8,40c7.1,5.1,14,10.5,20.8,16.2c6,5,12,10.3,17.7,15.9c0.3,0.2,0.5,0.5,0.8,0.7
		c19.7,18.7,40.5,34.4,62,47.5c1.1,0.7,2.2,1.3,3.2,2c202.4,119.9,472.7,15,579.8,69.1c10.8,5.5,21,10.6,30.4,15.4
		c8.8,4.5,16.9,8.6,24.5,12.6c2.3,1.2,4.6,2.4,6.8,3.6C1324.8,797.2,1347.4,811.4,1358.5,826.7z"/>
</g>
</svg>
